<svg width="14" height="14" viewBox="0 0 14 14" fill="none" xmlns="http://www.w3.org/2000/svg">
<path d="M6.29992 10.4999H7.69991V6.29992H6.29992V10.4999ZM6.99991 4.89994C7.19825 4.89994 7.36461 4.83274 7.49901 4.69834C7.63341 4.56394 7.70037 4.39781 7.69991 4.19995C7.69991 4.00162 7.63271 3.83525 7.49831 3.70085C7.36391 3.56646 7.19778 3.49949 6.99991 3.49996C6.80158 3.49996 6.63522 3.56716 6.50082 3.70155C6.36642 3.83595 6.29946 4.00208 6.29992 4.19995C6.29992 4.39828 6.36712 4.56464 6.50152 4.69904C6.63592 4.83344 6.80205 4.90041 6.99991 4.89994ZM6.99991 13.9998C6.03159 13.9998 5.1216 13.816 4.26995 13.4482C3.41829 13.0805 2.67747 12.5819 2.04748 11.9524C1.41748 11.3224 0.918856 10.5815 0.551593 9.72988C0.184331 8.87823 0.000466661 7.96824 0 6.99991C0 6.03159 0.183864 5.1216 0.551593 4.26995C0.919322 3.41829 1.41795 2.67747 2.04748 2.04748C2.67747 1.41748 3.41829 0.918856 4.26995 0.551593C5.1216 0.184331 6.03159 0.000466661 6.99991 0C7.96824 0 8.87823 0.183864 9.72988 0.551593C10.5815 0.919322 11.3224 1.41795 11.9524 2.04748C12.5823 2.67747 13.0812 3.41829 13.4489 4.26995C13.8167 5.1216 14.0003 6.03159 13.9998 6.99991C13.9998 7.96824 13.816 8.87823 13.4482 9.72988C13.0805 10.5815 12.5819 11.3224 11.9524 11.9524C11.3224 12.5823 10.5815 13.0812 9.72988 13.4489C8.87823 13.8167 7.96824 14.0003 6.99991 13.9998ZM6.99991 12.5998C8.56323 12.5998 9.88738 12.0574 10.9724 10.9724C12.0574 9.88738 12.5998 8.56323 12.5998 6.99991C12.5998 5.4366 12.0574 4.11245 10.9724 3.02746C9.88738 1.94248 8.56323 1.39998 6.99991 1.39998C5.4366 1.39998 4.11245 1.94248 3.02746 3.02746C1.94248 4.11245 1.39998 5.4366 1.39998 6.99991C1.39998 8.56323 1.94248 9.88738 3.02746 10.9724C4.11245 12.0574 5.4366 12.5998 6.99991 12.5998Z" fill="#19BCAA"/>
</svg>
