<svg width="283" height="212" viewBox="0 0 283 212" fill="none" xmlns="http://www.w3.org/2000/svg">
<rect width="283" height="212" rx="8" fill="url(#paint0_linear_5276_10666)"/>
<path d="M208 151L95 0H8C3.58173 0 0 3.58172 0 8V151H208Z" fill="url(#paint1_linear_5276_10666)"/>
<path d="M268.232 150.632C270.492 150.632 272.325 152.464 272.325 154.725V162.909C272.324 165.169 270.492 167.001 268.232 167.001H200.029C197.769 167.001 195.937 165.169 195.937 162.909V154.725C195.937 152.465 197.769 150.632 200.029 150.632H268.232ZM230.638 78.9032C232.384 76.5752 235.875 76.5752 237.621 78.9032L256.205 103.681C257.595 105.534 260.191 105.979 262.118 104.694L274.468 96.4608C277.704 94.3042 281.932 97.136 281.169 100.949L273.025 141.669C272.617 143.709 270.825 145.178 268.744 145.178H199.514C197.433 145.178 195.642 143.709 195.234 141.669L187.09 100.949C186.328 97.1359 190.556 94.3039 193.791 96.4608L206.141 104.694C208.068 105.979 210.664 105.534 212.054 103.681L230.638 78.9032ZM247.414 118.235C245.71 116.531 242.945 116.531 241.241 118.235L234.13 125.345L227.021 118.235C225.316 116.531 222.553 116.531 220.848 118.235L217.762 121.322L233.966 137.526L234.131 137.361L234.296 137.526L250.5 121.322L247.414 118.235Z" fill="url(#paint2_linear_5276_10666)"/>
<path d="M272.325 162.909L272.765 162.909V162.909H272.325ZM200.029 167.001L200.029 167.441H200.029V167.001ZM195.937 162.909H195.496V162.909L195.937 162.909ZM200.029 150.632V150.191H200.029L200.029 150.632ZM230.638 78.9032L230.99 79.1675L230.99 79.1675L230.638 78.9032ZM237.621 78.9032L237.269 79.1675L237.269 79.1675L237.621 78.9032ZM256.205 103.681L255.853 103.945L255.853 103.945L256.205 103.681ZM262.118 104.694L262.363 105.061L262.363 105.061L262.118 104.694ZM274.468 96.4608L274.224 96.0944L274.224 96.0944L274.468 96.4608ZM281.169 100.949L281.601 101.036V101.035L281.169 100.949ZM273.025 141.669L273.457 141.755L273.457 141.755L273.025 141.669ZM268.744 145.178V145.618H268.744L268.744 145.178ZM199.514 145.178L199.514 145.618H199.514V145.178ZM195.234 141.669L194.802 141.755L194.802 141.755L195.234 141.669ZM187.09 100.949L187.522 100.863L187.522 100.863L187.09 100.949ZM193.791 96.4608L194.036 96.0944L194.036 96.0944L193.791 96.4608ZM206.141 104.694L205.897 105.061L205.897 105.061L206.141 104.694ZM212.054 103.681L212.406 103.945L212.406 103.945L212.054 103.681ZM247.414 118.235L247.726 117.924L247.726 117.924L247.414 118.235ZM241.241 118.235L241.552 118.547L241.552 118.547L241.241 118.235ZM234.13 125.345L233.819 125.656L234.13 125.967L234.442 125.656L234.13 125.345ZM227.021 118.235L227.332 117.924L227.332 117.924L227.021 118.235ZM220.848 118.235L220.537 117.924L220.537 117.924L220.848 118.235ZM217.762 121.322L217.451 121.011L217.139 121.322L217.451 121.634L217.762 121.322ZM233.966 137.526L233.655 137.838L233.966 138.149L234.278 137.838L233.966 137.526ZM234.131 137.361L234.443 137.05L234.131 136.738L233.82 137.05L234.131 137.361ZM234.296 137.526L233.985 137.838L234.296 138.149L234.608 137.838L234.296 137.526ZM250.5 121.322L250.812 121.634L251.123 121.322L250.812 121.011L250.5 121.322ZM268.232 150.632V151.072C270.249 151.072 271.884 152.708 271.884 154.725H272.325H272.765C272.765 152.221 270.735 150.191 268.232 150.191V150.632ZM272.325 154.725H271.884V162.909H272.325H272.765V154.725H272.325ZM272.325 162.909L271.884 162.909C271.884 164.926 270.249 166.56 268.232 166.56V167.001V167.441C270.735 167.441 272.765 165.412 272.765 162.909L272.325 162.909ZM268.232 167.001V166.56H200.029V167.001V167.441H268.232V167.001ZM200.029 167.001L200.029 166.56C198.012 166.56 196.377 164.926 196.377 162.909L195.937 162.909L195.496 162.909C195.497 165.412 197.526 167.441 200.029 167.441L200.029 167.001ZM195.937 162.909H196.377V154.725H195.937H195.496V162.909H195.937ZM195.937 154.725H196.377C196.377 152.708 198.012 151.072 200.029 151.072L200.029 150.632L200.029 150.191C197.525 150.192 195.496 152.221 195.496 154.725H195.937ZM200.029 150.632V151.072H268.232V150.632V150.191H200.029V150.632ZM230.638 78.9032L230.99 79.1675C232.56 77.0744 235.699 77.0744 237.269 79.1675L237.621 78.9032L237.974 78.639C236.052 76.0761 232.208 76.0761 230.286 78.639L230.638 78.9032ZM237.621 78.9032L237.269 79.1675L255.853 103.945L256.205 103.681L256.558 103.416L237.974 78.639L237.621 78.9032ZM256.205 103.681L255.853 103.945C257.383 105.985 260.241 106.475 262.363 105.061L262.118 104.694L261.874 104.328C260.141 105.483 257.808 105.083 256.558 103.416L256.205 103.681ZM262.118 104.694L262.363 105.061L274.712 96.8273L274.468 96.4608L274.224 96.0944L261.874 104.328L262.118 104.694ZM274.468 96.4608L274.712 96.8273C277.621 94.8883 281.423 97.4344 280.737 100.863L281.169 100.949L281.601 101.035C282.441 96.8376 277.786 93.7202 274.224 96.0944L274.468 96.4608ZM281.169 100.949L280.737 100.863L272.593 141.582L273.025 141.669L273.457 141.755L281.601 101.036L281.169 100.949ZM273.025 141.669L272.593 141.582C272.226 143.417 270.615 144.737 268.744 144.737L268.744 145.178L268.744 145.618C271.035 145.618 273.007 144.001 273.457 141.755L273.025 141.669ZM268.744 145.178V144.737H199.514V145.178V145.618H268.744V145.178ZM199.514 145.178L199.514 144.737C197.643 144.737 196.033 143.417 195.666 141.582L195.234 141.669L194.802 141.755C195.251 144.001 197.224 145.618 199.514 145.618L199.514 145.178ZM195.234 141.669L195.666 141.582L187.522 100.863L187.09 100.949L186.658 101.035L194.802 141.755L195.234 141.669ZM187.09 100.949L187.522 100.863C186.836 97.4342 190.638 94.888 193.547 96.8273L193.791 96.4608L194.036 96.0944C190.473 93.7198 185.819 96.8376 186.658 101.035L187.09 100.949ZM193.791 96.4608L193.547 96.8273L205.897 105.061L206.141 104.694L206.385 104.328L194.036 96.0944L193.791 96.4608ZM206.141 104.694L205.897 105.061C208.019 106.475 210.876 105.985 212.406 103.945L212.054 103.681L211.702 103.416C210.452 105.082 208.118 105.483 206.385 104.328L206.141 104.694ZM212.054 103.681L212.406 103.945L230.99 79.1675L230.638 78.9032L230.286 78.639L211.702 103.416L212.054 103.681ZM247.414 118.235L247.726 117.924C245.849 116.047 242.806 116.047 240.929 117.924L241.241 118.235L241.552 118.547C243.085 117.014 245.57 117.014 247.103 118.547L247.414 118.235ZM241.241 118.235L240.929 117.924L233.819 125.033L234.13 125.345L234.442 125.656L241.552 118.547L241.241 118.235ZM234.13 125.345L234.442 125.033L227.332 117.924L227.021 118.235L226.709 118.547L233.819 125.656L234.13 125.345ZM227.021 118.235L227.332 117.924C225.456 116.047 222.413 116.047 220.537 117.924L220.848 118.235L221.159 118.547C222.692 117.014 225.177 117.014 226.709 118.547L227.021 118.235ZM220.848 118.235L220.537 117.924L217.451 121.011L217.762 121.322L218.073 121.634L221.159 118.547L220.848 118.235ZM217.762 121.322L217.451 121.634L233.655 137.838L233.966 137.526L234.278 137.215L218.073 121.011L217.762 121.322ZM233.966 137.526L234.278 137.838L234.443 137.673L234.131 137.361L233.82 137.05L233.655 137.215L233.966 137.526ZM234.131 137.361L233.82 137.673L233.985 137.838L234.296 137.526L234.608 137.215L234.443 137.05L234.131 137.361ZM234.296 137.526L234.608 137.838L250.812 121.634L250.5 121.322L250.189 121.011L233.985 137.215L234.296 137.526ZM250.5 121.322L250.812 121.011L247.726 117.924L247.414 118.235L247.103 118.547L250.189 121.634L250.5 121.322Z" fill="url(#paint3_linear_5276_10666)"/>
<path d="M21.296 40.832H20.448V43.68H19.136V32.656H18.256V41.072H16.928V31.328H19.136V28.976H20.448V31.328H22.688V39.248C22.688 40.304 22.224 40.832 21.296 40.832ZM20.448 32.656V39.696L20.912 39.712C21.2 39.712 21.36 39.456 21.36 38.96V32.656H20.448ZM26.816 36.56H25.536V41.744C26.24 41.472 26.944 41.12 27.664 40.704L27.904 42.064C26.848 42.704 25.632 43.216 24.256 43.616L23.632 42.272C23.92 42.144 24.08 41.936 24.08 41.664V36.56H23.104V35.104H24.08V28.896H25.536V35.104H31.008V36.56H28.144C28.944 39.024 30.048 40.928 31.488 42.256L30.448 43.424C28.848 41.856 27.648 39.568 26.816 36.56ZM29.744 29.312L30.864 30.24C29.712 32.096 28.352 33.472 26.784 34.336L25.984 33.216C27.424 32.352 28.688 31.056 29.744 29.312ZM44.544 32.208H35.824V34.928H44.544V32.208ZM35.808 36.416C35.712 39.232 34.976 41.68 33.584 43.728L32.464 42.704C33.68 40.96 34.304 38.704 34.32 35.952V30.72H39.456C39.2 30.112 38.912 29.536 38.592 29.008L40.224 28.752C40.496 29.344 40.752 30 41.008 30.72H46.08V36.416H35.808ZM52 32.048C52.32 32.048 52.608 32.16 52.848 32.4C53.072 32.624 53.2 32.912 53.2 33.248C53.2 33.568 53.072 33.856 52.848 34.08C52.608 34.304 52.32 34.432 52 34.432C51.664 34.432 51.376 34.304 51.152 34.08C50.928 33.856 50.816 33.568 50.816 33.248C50.816 32.912 50.928 32.624 51.152 32.4C51.376 32.16 51.664 32.048 52 32.048ZM52 37.904C52.32 37.904 52.608 38.016 52.848 38.256C53.072 38.48 53.2 38.768 53.2 39.104C53.2 39.424 53.072 39.712 52.848 39.936C52.608 40.16 52.32 40.288 52 40.288C51.664 40.288 51.376 40.16 51.152 39.936C50.928 39.712 50.816 39.424 50.816 39.104C50.816 38.768 50.928 38.48 51.152 38.256C51.376 38.016 51.664 37.904 52 37.904ZM20.56 57.504C21.584 57.504 22.4 57.744 23.024 58.224C23.664 58.72 24.048 59.472 24.192 60.48H22.928C22.816 59.84 22.56 59.36 22.16 59.04C21.744 58.72 21.216 58.576 20.56 58.576C19.76 58.576 19.12 58.88 18.656 59.488C18.208 60.08 17.984 60.88 17.984 61.888C17.984 62.896 18.192 63.696 18.64 64.272C19.072 64.848 19.712 65.152 20.544 65.152C21.952 65.152 22.768 64.432 22.96 63.008H24.24C24.048 64.064 23.648 64.88 23.008 65.424C22.384 65.952 21.568 66.224 20.544 66.224C19.296 66.224 18.336 65.808 17.648 64.976C16.992 64.192 16.672 63.168 16.672 61.904C16.672 60.64 16.992 59.616 17.648 58.816C18.352 57.936 19.328 57.504 20.56 57.504ZM29.342 57.504C30.526 57.504 31.39 57.808 31.966 58.432C32.446 58.976 32.702 59.728 32.702 60.688V66H31.502V64.608C31.182 65.056 30.75 65.424 30.238 65.712C29.63 66.048 28.942 66.224 28.174 66.224C27.342 66.224 26.686 66.016 26.19 65.6C25.678 65.168 25.422 64.608 25.422 63.936C25.422 62.992 25.79 62.288 26.558 61.808C27.23 61.36 28.19 61.12 29.438 61.104L31.422 61.072V60.64C31.422 59.248 30.702 58.56 29.262 58.56C28.654 58.56 28.158 58.672 27.774 58.928C27.342 59.184 27.07 59.584 26.942 60.112L25.678 60.016C25.854 59.152 26.286 58.496 26.958 58.08C27.566 57.696 28.35 57.504 29.342 57.504ZM31.422 62.032L29.518 62.064C27.662 62.096 26.734 62.704 26.734 63.904C26.734 64.288 26.878 64.592 27.198 64.848C27.518 65.088 27.934 65.216 28.446 65.216C29.23 65.216 29.918 64.96 30.526 64.448C31.118 63.952 31.422 63.376 31.422 62.736V62.032ZM38.2955 57.504C39.5595 57.504 40.4235 58.016 40.8875 59.072C41.2075 58.528 41.5915 58.128 42.0395 57.888C42.4395 57.632 42.9195 57.504 43.4955 57.504C44.3595 57.504 45.0475 57.776 45.5915 58.32C46.1035 58.88 46.3755 59.632 46.3755 60.576V66H45.0955V60.784C45.0955 60.048 44.9355 59.504 44.6315 59.152C44.3115 58.768 43.7995 58.592 43.0955 58.592C42.5515 58.592 42.0875 58.784 41.7355 59.2C41.3515 59.616 41.1755 60.144 41.1755 60.816V66H39.8955V60.784C39.8955 59.312 39.2555 58.592 37.9915 58.592C37.3995 58.592 36.9195 58.816 36.5355 59.296C36.1515 59.744 35.9595 60.304 35.9595 60.96V66H34.6795V57.728H35.9595V58.832C36.5835 57.936 37.3675 57.504 38.2955 57.504ZM51.295 57.504C53.343 57.504 54.463 58.352 54.687 60.08H53.439C53.327 59.568 53.119 59.184 52.799 58.96C52.447 58.704 51.935 58.576 51.279 58.576C50.703 58.576 50.255 58.672 49.935 58.896C49.583 59.104 49.407 59.392 49.407 59.76C49.407 60.112 49.631 60.416 50.111 60.656C50.415 60.8 50.991 60.976 51.823 61.2C52.815 61.44 53.519 61.696 53.951 61.968C54.607 62.384 54.943 62.944 54.943 63.664C54.943 65.36 53.775 66.224 51.439 66.224C49.263 66.224 48.079 65.264 47.887 63.36H49.135C49.231 64.016 49.471 64.48 49.823 64.768C50.175 65.024 50.703 65.152 51.407 65.152C52.879 65.152 53.631 64.672 53.631 63.744C53.631 63.28 53.359 62.928 52.847 62.672C52.575 62.544 51.983 62.368 51.087 62.144C50.111 61.904 49.423 61.664 49.039 61.408C48.399 61.024 48.095 60.496 48.095 59.792C48.095 59.088 48.399 58.544 49.023 58.128C49.599 57.712 50.367 57.504 51.295 57.504ZM60.0131 57.504C61.0371 57.504 61.8531 57.744 62.4771 58.224C63.1171 58.72 63.5011 59.472 63.6451 60.48H62.3811C62.2691 59.84 62.0131 59.36 61.6131 59.04C61.1971 58.72 60.6691 58.576 60.0131 58.576C59.2131 58.576 58.5731 58.88 58.1091 59.488C57.6611 60.08 57.4371 60.88 57.4371 61.888C57.4371 62.896 57.6451 63.696 58.0931 64.272C58.5251 64.848 59.1651 65.152 59.9971 65.152C61.4051 65.152 62.2211 64.432 62.4131 63.008H63.6931C63.5011 64.064 63.1011 64.88 62.4611 65.424C61.8371 65.952 61.0211 66.224 59.9971 66.224C58.7491 66.224 57.7891 65.808 57.1011 64.976C56.4451 64.192 56.1251 63.168 56.1251 61.904C56.1251 60.64 56.4451 59.616 57.1011 58.816C57.8051 57.936 58.7811 57.504 60.0131 57.504ZM68.7951 57.504C69.9791 57.504 70.8431 57.808 71.4191 58.432C71.8991 58.976 72.1551 59.728 72.1551 60.688V66H70.9551V64.608C70.6351 65.056 70.2031 65.424 69.6911 65.712C69.0831 66.048 68.3951 66.224 67.6271 66.224C66.7951 66.224 66.1391 66.016 65.6431 65.6C65.1311 65.168 64.8751 64.608 64.8751 63.936C64.8751 62.992 65.2431 62.288 66.0111 61.808C66.6831 61.36 67.6431 61.12 68.8911 61.104L70.8751 61.072V60.64C70.8751 59.248 70.1551 58.56 68.7151 58.56C68.1071 58.56 67.6111 58.672 67.2271 58.928C66.7951 59.184 66.5231 59.584 66.3951 60.112L65.1311 60.016C65.3071 59.152 65.7391 58.496 66.4111 58.08C67.0191 57.696 67.8031 57.504 68.7951 57.504ZM70.8751 62.032L68.9711 62.064C67.1151 62.096 66.1871 62.704 66.1871 63.904C66.1871 64.288 66.3311 64.592 66.6511 64.848C66.9711 65.088 67.3871 65.216 67.8991 65.216C68.6831 65.216 69.3711 64.96 69.9791 64.448C70.5711 63.952 70.8751 63.376 70.8751 62.736V62.032ZM78.0046 57.504C80.0526 57.504 81.0926 58.64 81.0926 60.912V66H79.8126V61.008C79.8126 59.392 79.0766 58.592 77.6366 58.592C77.0606 58.592 76.5646 58.8 76.1486 59.216C75.7006 59.664 75.4606 60.256 75.4126 61.008V66H74.1326V57.728H75.4126V58.944C75.7006 58.48 76.0686 58.128 76.5166 57.888C76.9646 57.632 77.4606 57.504 78.0046 57.504ZM86.9421 57.504C88.9901 57.504 90.0301 58.64 90.0301 60.912V66H88.7501V61.008C88.7501 59.392 88.0141 58.592 86.5741 58.592C85.9981 58.592 85.5021 58.8 85.0861 59.216C84.6381 59.664 84.3981 60.256 84.3501 61.008V66H83.0701V57.728H84.3501V58.944C84.6381 58.48 85.0061 58.128 85.4541 57.888C85.9021 57.632 86.3981 57.504 86.9421 57.504ZM95.4156 57.504C96.7436 57.504 97.7516 57.952 98.4236 58.848C99.0316 59.648 99.3516 60.784 99.3836 62.224H92.8556C92.9196 63.152 93.1596 63.872 93.6076 64.384C94.0556 64.896 94.6796 65.152 95.4636 65.152C96.1356 65.152 96.6956 64.976 97.1116 64.64C97.4636 64.352 97.7356 63.92 97.9436 63.344H99.2236C99.0316 64.144 98.6636 64.784 98.1036 65.296C97.4156 65.904 96.5356 66.224 95.4636 66.224C94.2796 66.224 93.3196 65.824 92.6156 65.056C91.8796 64.256 91.5276 63.2 91.5276 61.856C91.5276 60.64 91.8636 59.616 92.5676 58.8C93.2716 57.936 94.2156 57.504 95.4156 57.504ZM95.4476 58.576C94.7116 58.576 94.1196 58.816 93.6716 59.296C93.2236 59.776 92.9676 60.416 92.8876 61.232H98.0556C97.8956 59.456 97.0156 58.576 95.4476 58.576ZM104.515 57.504C104.963 57.504 105.347 57.568 105.651 57.696V58.976C105.235 58.848 104.819 58.8 104.419 58.8C103.779 58.8 103.235 59.072 102.803 59.648C102.355 60.192 102.147 60.848 102.147 61.616V66H100.883V57.728H102.147V59.168C102.371 58.688 102.659 58.304 103.011 58.032C103.443 57.68 103.939 57.504 104.515 57.504ZM112.79 54.352C114.454 54.352 115.782 54.848 116.758 55.856C117.654 56.768 118.102 57.904 118.102 59.28C118.102 60.432 117.734 61.456 117.03 62.384C116.326 63.264 115.558 63.712 114.726 63.712C114.054 63.712 113.686 63.36 113.622 62.656C113.078 63.376 112.406 63.744 111.606 63.744C110.934 63.744 110.39 63.504 109.974 63.056C109.558 62.608 109.35 62.032 109.35 61.344C109.35 60.16 109.702 59.12 110.438 58.256C111.142 57.392 111.958 56.976 112.918 56.976C113.686 56.976 114.198 57.376 114.454 58.176L114.694 57.28H115.734L114.598 61.456C114.47 61.92 114.406 62.24 114.406 62.432C114.406 62.688 114.55 62.832 114.854 62.832C115.35 62.832 115.846 62.512 116.342 61.888C116.918 61.152 117.206 60.288 117.206 59.296C117.206 58.16 116.822 57.216 116.054 56.464C115.222 55.648 114.102 55.248 112.726 55.248C111.254 55.248 110.038 55.728 109.078 56.704C108.134 57.664 107.67 58.896 107.67 60.368C107.67 61.984 108.134 63.232 109.094 64.112C109.99 64.944 111.222 65.376 112.79 65.376C113.91 65.376 114.902 65.168 115.734 64.768C116.47 64.4 117.062 63.904 117.51 63.264H118.63C118.07 64.224 117.27 64.96 116.214 65.472C115.19 65.968 114.054 66.224 112.79 66.224C110.87 66.224 109.366 65.696 108.262 64.64C107.126 63.552 106.566 62.128 106.566 60.336C106.566 58.656 107.126 57.264 108.262 56.144C109.446 54.944 110.95 54.352 112.79 54.352ZM113.094 57.984C112.406 57.984 111.798 58.304 111.286 58.976C110.742 59.648 110.47 60.448 110.47 61.392C110.47 61.824 110.566 62.16 110.774 62.416C110.982 62.672 111.286 62.8 111.686 62.8C112.086 62.8 112.486 62.64 112.87 62.32C113.254 62 113.51 61.616 113.638 61.2L113.99 59.888C114.086 59.472 114.15 59.216 114.15 59.12C114.15 58.832 114.054 58.576 113.878 58.368C113.67 58.112 113.414 57.984 113.094 57.984ZM121.517 54.608C121.789 54.608 122.013 54.688 122.205 54.88C122.397 55.04 122.493 55.264 122.493 55.552C122.493 55.824 122.397 56.048 122.205 56.24C122.013 56.416 121.789 56.512 121.517 56.512C121.245 56.512 121.021 56.416 120.829 56.24C120.637 56.048 120.557 55.824 120.557 55.552C120.557 55.264 120.637 55.04 120.829 54.88C121.021 54.688 121.245 54.608 121.517 54.608ZM120.877 57.728H122.157V66H120.877V57.728ZM128.427 57.504C130.475 57.504 131.515 58.64 131.515 60.912V66H130.235V61.008C130.235 59.392 129.499 58.592 128.059 58.592C127.483 58.592 126.987 58.8 126.571 59.216C126.123 59.664 125.883 60.256 125.835 61.008V66H124.555V57.728H125.835V58.944C126.123 58.48 126.491 58.128 126.939 57.888C127.387 57.632 127.883 57.504 128.427 57.504ZM135.7 55.056V57.728H137.748V58.8H135.7V64.064C135.7 64.368 135.748 64.592 135.876 64.72C135.988 64.848 136.196 64.928 136.484 64.928H137.54V66H136.292C135.62 66 135.124 65.824 134.836 65.472C134.564 65.152 134.436 64.688 134.436 64.064V58.8H132.772V57.728H134.436V55.584L135.7 55.056ZM142.108 57.504C144.156 57.504 145.276 58.352 145.5 60.08H144.252C144.14 59.568 143.932 59.184 143.612 58.96C143.26 58.704 142.748 58.576 142.092 58.576C141.516 58.576 141.068 58.672 140.748 58.896C140.396 59.104 140.22 59.392 140.22 59.76C140.22 60.112 140.444 60.416 140.924 60.656C141.228 60.8 141.804 60.976 142.636 61.2C143.628 61.44 144.332 61.696 144.764 61.968C145.42 62.384 145.756 62.944 145.756 63.664C145.756 65.36 144.588 66.224 142.252 66.224C140.076 66.224 138.892 65.264 138.7 63.36H139.948C140.044 64.016 140.284 64.48 140.636 64.768C140.988 65.024 141.516 65.152 142.22 65.152C143.692 65.152 144.444 64.672 144.444 63.744C144.444 63.28 144.172 62.928 143.66 62.672C143.388 62.544 142.796 62.368 141.9 62.144C140.924 61.904 140.236 61.664 139.852 61.408C139.212 61.024 138.908 60.496 138.908 59.792C138.908 59.088 139.212 58.544 139.836 58.128C140.412 57.712 141.18 57.504 142.108 57.504ZM148.314 54.608C148.586 54.608 148.81 54.688 149.002 54.88C149.194 55.04 149.29 55.264 149.29 55.552C149.29 55.824 149.194 56.048 149.002 56.24C148.81 56.416 148.586 56.512 148.314 56.512C148.042 56.512 147.818 56.416 147.626 56.24C147.434 56.048 147.354 55.824 147.354 55.552C147.354 55.264 147.434 55.04 147.626 54.88C147.818 54.688 148.042 54.608 148.314 54.608ZM147.674 57.728H148.954V66H147.674V57.728ZM154.759 57.504C156.007 57.504 156.935 58.048 157.543 59.152V57.728H158.823V65.424C158.823 68.064 157.559 69.392 155.047 69.392C153.927 69.392 153.063 69.168 152.487 68.72C151.895 68.272 151.527 67.6 151.383 66.704H152.663C152.759 67.264 152.999 67.68 153.367 67.936C153.735 68.208 154.295 68.352 155.047 68.352C156.711 68.352 157.543 67.424 157.543 65.6V64.144C156.935 65.248 156.007 65.808 154.759 65.808C153.607 65.808 152.695 65.408 152.023 64.624C151.351 63.856 151.031 62.88 151.031 61.68C151.031 60.464 151.351 59.488 152.023 58.72C152.695 57.904 153.607 57.504 154.759 57.504ZM154.951 58.56C154.119 58.56 153.479 58.848 153.015 59.456C152.567 60 152.343 60.752 152.343 61.68C152.343 62.544 152.535 63.264 152.935 63.808C153.383 64.416 154.039 64.736 154.935 64.736C155.767 64.736 156.407 64.448 156.887 63.872C157.335 63.312 157.559 62.576 157.559 61.68C157.559 60.752 157.335 60 156.887 59.456C156.407 58.848 155.767 58.56 154.951 58.56ZM161.924 64.096C162.181 64.096 162.421 64.192 162.613 64.384C162.805 64.576 162.901 64.8 162.901 65.088C162.901 65.36 162.805 65.584 162.613 65.776C162.421 65.968 162.181 66.064 161.924 66.064C161.637 66.064 161.413 65.968 161.237 65.776C161.045 65.584 160.949 65.36 160.949 65.088C160.949 64.8 161.045 64.576 161.237 64.384C161.413 64.192 161.637 64.096 161.924 64.096ZM168.895 57.504C170.943 57.504 171.983 58.64 171.983 60.912V66H170.703V61.008C170.703 59.392 169.967 58.592 168.527 58.592C167.951 58.592 167.455 58.8 167.039 59.216C166.591 59.664 166.351 60.256 166.303 61.008V66H165.023V57.728H166.303V58.944C166.591 58.48 166.959 58.128 167.407 57.888C167.855 57.632 168.351 57.504 168.895 57.504ZM177.369 57.504C178.697 57.504 179.705 57.952 180.377 58.848C180.985 59.648 181.305 60.784 181.337 62.224H174.809C174.873 63.152 175.113 63.872 175.561 64.384C176.009 64.896 176.633 65.152 177.417 65.152C178.089 65.152 178.649 64.976 179.065 64.64C179.417 64.352 179.689 63.92 179.897 63.344H181.177C180.985 64.144 180.617 64.784 180.057 65.296C179.369 65.904 178.489 66.224 177.417 66.224C176.233 66.224 175.273 65.824 174.569 65.056C173.833 64.256 173.481 63.2 173.481 61.856C173.481 60.64 173.817 59.616 174.521 58.8C175.225 57.936 176.169 57.504 177.369 57.504ZM177.401 58.576C176.665 58.576 176.073 58.816 175.625 59.296C175.177 59.776 174.921 60.416 174.841 61.232H180.009C179.849 59.456 178.969 58.576 177.401 58.576ZM185.044 55.056V57.728H187.092V58.8H185.044V64.064C185.044 64.368 185.092 64.592 185.22 64.72C185.332 64.848 185.54 64.928 185.828 64.928H186.884V66H185.636C184.964 66 184.468 65.824 184.18 65.472C183.908 65.152 183.78 64.688 183.78 64.064V58.8H182.116V57.728H183.78V55.584L185.044 55.056Z" fill="#1E2334"/>
<path d="M21.792 90.848V92.256H27.776V90.848H21.792ZM27.776 93.584H21.792V94.96H27.776V93.584ZM27.776 96.272H21.792V99.616H20.368V91.632C19.536 92.608 18.624 93.504 17.6 94.336L16.624 93.056C18.48 91.584 19.952 89.888 21.008 88H17.056V86.528H21.744C21.984 85.952 22.192 85.36 22.384 84.784L23.936 84.96C23.776 85.504 23.6 86.032 23.408 86.528H31.136V88H22.752C22.496 88.528 22.208 89.04 21.904 89.536H29.2V98.192C29.2 99.072 28.688 99.52 27.664 99.552H25.872L25.504 98.176C26.096 98.224 26.656 98.256 27.184 98.256C27.568 98.256 27.776 98.08 27.776 97.728V96.272ZM34.784 88.4L36.096 89.04C35.408 90.512 34.608 91.792 33.696 92.88L32.464 92C33.36 91.008 34.144 89.808 34.784 88.4ZM39.008 91.536C38.352 90.704 37.648 89.92 36.896 89.2L37.824 88.288C38.432 88.784 39.168 89.536 40 90.528L39.008 91.536ZM35.024 92.272C35.6 92.736 36.176 93.216 36.72 93.712C37.056 93.04 37.344 92.336 37.568 91.584L38.896 92.144C38.608 93.104 38.272 94 37.872 94.8C38.496 95.408 39.088 96.032 39.664 96.688L38.592 97.888C38.08 97.28 37.568 96.704 37.056 96.176C36.096 97.584 34.88 98.72 33.408 99.552L32.48 98.192C33.888 97.424 35.04 96.368 35.952 95.056C35.312 94.448 34.688 93.872 34.064 93.36L35.024 92.272ZM36.72 84.784C36.944 85.28 37.168 85.84 37.376 86.448H40.32V87.904H32.816V86.448H35.888C35.664 85.936 35.408 85.472 35.136 85.04L36.72 84.784ZM42.544 88.816C42.432 89.152 42.32 89.472 42.224 89.776C42.56 91.216 42.992 92.48 43.504 93.6C44.144 92.192 44.512 90.608 44.592 88.816H42.544ZM42.688 95.04C42.176 94.032 41.728 92.912 41.376 91.696C41.12 92.16 40.848 92.592 40.576 92.976L39.616 91.792C40.72 90.064 41.472 87.744 41.856 84.816L43.36 85.072C43.232 85.872 43.088 86.64 42.928 87.344H47.232V88.816H46C45.888 91.264 45.344 93.376 44.352 95.152C45.216 96.528 46.272 97.584 47.488 98.32L46.576 99.648C45.392 98.864 44.352 97.792 43.488 96.448C42.48 97.76 41.2 98.848 39.664 99.712L38.8 98.32C40.448 97.488 41.744 96.4 42.688 95.04ZM49.824 84.96H51.296V86.608H54.064V84.992H55.536V86.608H56.368V88.016H55.536V94.432H56.448V95.84H48.784V94.432H49.824V88.016H48.96V86.608H49.824V84.96ZM51.296 94.432H54.064V93.184H51.296V94.432ZM54.064 88.016H51.296V89.28H54.064V88.016ZM51.296 91.856H54.064V90.608H51.296V91.856ZM54.144 96.032C54.8 96.864 55.328 97.616 55.712 98.256C56.608 96.848 57.072 95.12 57.088 93.04V85.392H62.752V97.968C62.752 98.992 62.224 99.504 61.184 99.504H59.52L59.104 98.016C59.68 98.048 60.208 98.08 60.704 98.08C61.056 98.08 61.232 97.856 61.232 97.424V94.512H58.512C58.288 96.608 57.648 98.352 56.592 99.76L55.504 98.752L54.592 99.392C54.192 98.592 53.648 97.728 52.976 96.784L54.144 96.032ZM50.672 96.064L51.888 96.656C51.312 97.792 50.624 98.784 49.856 99.616L48.656 98.752C49.424 98 50.096 97.104 50.672 96.064ZM58.608 90.656V93.12H61.232V90.656H58.608ZM61.232 89.28V86.832H58.608V89.28H61.232ZM65.28 85.568H78.656V87.024H71.232C70.384 88.416 69.424 89.568 68.336 90.496C70.608 90.336 72.832 90.096 75.008 89.744C74.592 89.264 74.176 88.8 73.744 88.336L74.976 87.552C76.448 89.104 77.584 90.448 78.368 91.6L77.104 92.496C76.784 92.016 76.432 91.52 76.048 91.024C72.816 91.52 69.504 91.856 66.096 92.016L65.68 90.704C67.168 89.872 68.432 88.656 69.472 87.024H65.28V85.568ZM65.952 93.872H71.232V92.224H72.768V93.872H77.952V95.312H72.768V97.568H79.088V99.056H64.912V97.568H71.232V95.312H65.952V93.872ZM84 88.048C84.32 88.048 84.608 88.16 84.848 88.4C85.072 88.624 85.2 88.912 85.2 89.248C85.2 89.568 85.072 89.856 84.848 90.08C84.608 90.304 84.32 90.432 84 90.432C83.664 90.432 83.376 90.304 83.152 90.08C82.928 89.856 82.816 89.568 82.816 89.248C82.816 88.912 82.928 88.624 83.152 88.4C83.376 88.16 83.664 88.048 84 88.048ZM84 93.904C84.32 93.904 84.608 94.016 84.848 94.256C85.072 94.48 85.2 94.768 85.2 95.104C85.2 95.424 85.072 95.712 84.848 95.936C84.608 96.16 84.32 96.288 84 96.288C83.664 96.288 83.376 96.16 83.152 95.936C82.928 95.712 82.816 95.424 82.816 95.104C82.816 94.768 82.928 94.48 83.152 94.256C83.376 94.016 83.664 93.904 84 93.904ZM20.96 110.352C22.016 110.352 22.88 110.656 23.568 111.264C24.24 111.872 24.592 112.688 24.592 113.68C24.592 114.672 24.208 115.568 23.472 116.368C23.072 116.784 22.288 117.408 21.104 118.208C19.648 119.184 18.816 120.064 18.608 120.832H24.608V122H16.992C16.992 120.96 17.36 120.016 18.128 119.168C18.576 118.656 19.392 117.968 20.608 117.136C21.504 116.496 22.096 116.032 22.4 115.712C22.976 115.088 23.28 114.4 23.28 113.664C23.28 112.96 23.072 112.432 22.656 112.048C22.24 111.664 21.648 111.472 20.912 111.472C20.128 111.472 19.52 111.728 19.104 112.272C18.656 112.784 18.416 113.552 18.4 114.56H17.088C17.088 113.28 17.456 112.256 18.16 111.504C18.864 110.736 19.808 110.352 20.96 110.352ZM30.3938 110.352C31.7538 110.352 32.7778 110.944 33.4818 112.16C34.0898 113.184 34.3938 114.56 34.3938 116.288C34.3938 118.016 34.0898 119.392 33.4818 120.416C32.7778 121.616 31.7538 122.224 30.3938 122.224C29.0178 122.224 27.9938 121.616 27.3058 120.416C26.6978 119.392 26.3938 118.016 26.3938 116.288C26.3938 114.56 26.6978 113.184 27.3058 112.16C27.9938 110.944 29.0178 110.352 30.3938 110.352ZM30.3938 111.472C29.3698 111.472 28.6338 112.016 28.1858 113.12C27.8658 113.888 27.7057 114.944 27.7057 116.288C27.7057 117.616 27.8658 118.672 28.1858 119.456C28.6338 120.544 29.3698 121.104 30.3938 121.104C31.4178 121.104 32.1538 120.544 32.6018 119.456C32.9218 118.672 33.0978 117.616 33.0978 116.288C33.0978 114.944 32.9218 113.888 32.6018 113.12C32.1538 112.016 31.4178 111.472 30.3938 111.472ZM40.1475 110.352C41.2035 110.352 42.0675 110.656 42.7555 111.264C43.4275 111.872 43.7795 112.688 43.7795 113.68C43.7795 114.672 43.3955 115.568 42.6595 116.368C42.2595 116.784 41.4755 117.408 40.2915 118.208C38.8355 119.184 38.0035 120.064 37.7955 120.832H43.7955V122H36.1795C36.1795 120.96 36.5475 120.016 37.3155 119.168C37.7635 118.656 38.5795 117.968 39.7955 117.136C40.6915 116.496 41.2835 116.032 41.5875 115.712C42.1635 115.088 42.4675 114.4 42.4675 113.664C42.4675 112.96 42.2595 112.432 41.8435 112.048C41.4275 111.664 40.8355 111.472 40.0995 111.472C39.3155 111.472 38.7075 111.728 38.2915 112.272C37.8435 112.784 37.6035 113.552 37.5875 114.56H36.2755C36.2755 113.28 36.6435 112.256 37.3475 111.504C38.0515 110.736 38.9955 110.352 40.1475 110.352ZM49.7413 110.352C51.8533 110.352 53.0693 111.36 53.3893 113.408H52.0933C51.8373 112.096 51.0533 111.456 49.7253 111.456C48.8293 111.456 48.1253 111.888 47.6133 112.784C47.1013 113.616 46.8613 114.688 46.8613 115.984C46.8613 116.048 46.8613 116.192 46.8773 116.4H46.9413C47.2293 115.808 47.6293 115.344 48.1733 115.024C48.6853 114.688 49.2773 114.528 49.9493 114.528C51.0373 114.528 51.9173 114.88 52.5893 115.584C53.2453 116.288 53.5813 117.184 53.5813 118.304C53.5813 119.424 53.2133 120.368 52.4933 121.104C51.7573 121.84 50.8453 122.224 49.7253 122.224C48.3333 122.224 47.2933 121.696 46.5893 120.672C45.9173 119.696 45.5973 118.336 45.5973 116.592C45.5973 114.768 45.9493 113.28 46.6693 112.144C47.4213 110.944 48.4453 110.352 49.7413 110.352ZM49.6933 115.616C48.9413 115.616 48.3173 115.872 47.8213 116.384C47.3253 116.896 47.0853 117.536 47.0853 118.336C47.0853 119.136 47.3093 119.792 47.7893 120.304C48.2693 120.848 48.8932 121.12 49.6933 121.12C50.4613 121.12 51.0853 120.848 51.5653 120.336C52.0453 119.792 52.2853 119.12 52.2853 118.304C52.2853 117.488 52.0453 116.848 51.5813 116.368C51.1013 115.856 50.4773 115.616 49.6933 115.616ZM55.175 117.312H63.255V118.4H55.175V117.312ZM68.8625 110.352C70.2225 110.352 71.2465 110.944 71.9505 112.16C72.5585 113.184 72.8625 114.56 72.8625 116.288C72.8625 118.016 72.5585 119.392 71.9505 120.416C71.2465 121.616 70.2225 122.224 68.8625 122.224C67.4865 122.224 66.4625 121.616 65.7745 120.416C65.1665 119.392 64.8625 118.016 64.8625 116.288C64.8625 114.56 65.1665 113.184 65.7745 112.16C66.4625 110.944 67.4865 110.352 68.8625 110.352ZM68.8625 111.472C67.8385 111.472 67.1025 112.016 66.6545 113.12C66.3345 113.888 66.1745 114.944 66.1745 116.288C66.1745 117.616 66.3345 118.672 66.6545 119.456C67.1025 120.544 67.8385 121.104 68.8625 121.104C69.8865 121.104 70.6225 120.544 71.0705 119.456C71.3905 118.672 71.5665 117.616 71.5665 116.288C71.5665 114.944 71.3905 113.888 71.0705 113.12C70.6225 112.016 69.8865 111.472 68.8625 111.472ZM78.3283 110.352C79.7043 110.352 80.7443 110.864 81.4483 111.888C82.1203 112.848 82.4563 114.224 82.4563 115.984C82.4563 117.808 82.0883 119.28 81.3843 120.432C80.6163 121.616 79.5923 122.224 78.3123 122.224C76.1843 122.224 74.9683 121.2 74.6643 119.168H75.9603C76.2003 120.464 76.9843 121.12 78.3283 121.12C79.2083 121.12 79.9123 120.672 80.4403 119.792C80.9363 118.944 81.1923 117.872 81.1923 116.592C81.1923 116.512 81.1763 116.368 81.1763 116.176H81.1123C80.8243 116.752 80.4083 117.216 79.8803 117.552C79.3683 117.872 78.7763 118.048 78.1043 118.048C77.0003 118.048 76.1203 117.68 75.4483 116.96C74.7923 116.272 74.4723 115.376 74.4723 114.272C74.4723 113.136 74.8243 112.208 75.5603 111.472C76.2803 110.72 77.2083 110.352 78.3283 110.352ZM78.3602 111.456C77.5763 111.456 76.9523 111.712 76.4723 112.24C75.9923 112.768 75.7682 113.44 75.7682 114.272C75.7682 115.072 75.9923 115.728 76.4723 116.208C76.9363 116.704 77.5603 116.96 78.3602 116.96C79.0963 116.96 79.7203 116.704 80.2323 116.192C80.7123 115.68 80.9683 115.024 80.9683 114.24C80.9683 113.44 80.7283 112.784 80.2643 112.272C79.7843 111.728 79.1443 111.456 78.3602 111.456ZM84.05 117.312H92.13V118.4H84.05V117.312ZM97.7375 110.352C99.0975 110.352 100.122 110.944 100.826 112.16C101.434 113.184 101.738 114.56 101.738 116.288C101.738 118.016 101.434 119.392 100.826 120.416C100.122 121.616 99.0975 122.224 97.7375 122.224C96.3615 122.224 95.3375 121.616 94.6495 120.416C94.0415 119.392 93.7375 118.016 93.7375 116.288C93.7375 114.56 94.0415 113.184 94.6495 112.16C95.3375 110.944 96.3615 110.352 97.7375 110.352ZM97.7375 111.472C96.7135 111.472 95.9775 112.016 95.5295 113.12C95.2095 113.888 95.0495 114.944 95.0495 116.288C95.0495 117.616 95.2095 118.672 95.5295 119.456C95.9775 120.544 96.7135 121.104 97.7375 121.104C98.7615 121.104 99.4975 120.544 99.9455 119.456C100.266 118.672 100.442 117.616 100.442 116.288C100.442 114.944 100.266 113.888 99.9455 113.12C99.4975 112.016 98.7615 111.472 97.7375 111.472ZM107.491 110.352C109.603 110.352 110.819 111.36 111.139 113.408H109.843C109.587 112.096 108.803 111.456 107.475 111.456C106.579 111.456 105.875 111.888 105.363 112.784C104.851 113.616 104.611 114.688 104.611 115.984C104.611 116.048 104.611 116.192 104.627 116.4H104.691C104.979 115.808 105.379 115.344 105.923 115.024C106.435 114.688 107.027 114.528 107.699 114.528C108.787 114.528 109.667 114.88 110.339 115.584C110.995 116.288 111.331 117.184 111.331 118.304C111.331 119.424 110.963 120.368 110.243 121.104C109.507 121.84 108.595 122.224 107.475 122.224C106.083 122.224 105.043 121.696 104.339 120.672C103.667 119.696 103.347 118.336 103.347 116.592C103.347 114.768 103.699 113.28 104.419 112.144C105.171 110.944 106.195 110.352 107.491 110.352ZM107.443 115.616C106.691 115.616 106.067 115.872 105.571 116.384C105.075 116.896 104.835 117.536 104.835 118.336C104.835 119.136 105.059 119.792 105.539 120.304C106.019 120.848 106.643 121.12 107.443 121.12C108.211 121.12 108.835 120.848 109.315 120.336C109.795 119.792 110.035 119.12 110.035 118.304C110.035 117.488 109.795 116.848 109.331 116.368C108.851 115.856 108.227 115.616 107.443 115.616Z" fill="#1E2334"/>
<rect x="4.5" y="4.5" width="274" height="203" rx="5.5" stroke="#E8CB91"/>
<defs>
<linearGradient id="paint0_linear_5276_10666" x1="141.5" y1="0" x2="141.5" y2="182" gradientUnits="userSpaceOnUse">
<stop stop-color="#FFF3CE"/>
<stop offset="1" stop-color="#F6E1A7"/>
</linearGradient>
<linearGradient id="paint1_linear_5276_10666" x1="92.25" y1="10" x2="92.25" y2="103.5" gradientUnits="userSpaceOnUse">
<stop stop-color="#FFFCF2"/>
<stop offset="1" stop-color="#FFFCF2" stop-opacity="0"/>
</linearGradient>
<linearGradient id="paint2_linear_5276_10666" x1="200.877" y1="91.6912" x2="251.523" y2="161.276" gradientUnits="userSpaceOnUse">
<stop stop-color="#E8CB91" stop-opacity="0.4"/>
<stop offset="1" stop-color="#E8CB91" stop-opacity="0"/>
</linearGradient>
<linearGradient id="paint3_linear_5276_10666" x1="191.188" y1="91.6912" x2="234.129" y2="167.001" gradientUnits="userSpaceOnUse">
<stop stop-color="#E8CB91"/>
<stop offset="1" stop-color="#E8CB91" stop-opacity="0"/>
</linearGradient>
</defs>
</svg>
