<svg width="24" height="24" viewBox="0 0 24 24" fill="none" xmlns="http://www.w3.org/2000/svg">
<path d="M4.92 20C4.24794 20 3.91191 20 3.65521 19.8692C3.42942 19.7542 3.24584 19.5706 3.13079 19.3448C3 19.0881 3 18.7521 3 18.08L3 5.92C3 5.24794 3 4.91191 3.13079 4.65521C3.24584 4.42942 3.42942 4.24584 3.65521 4.13079C3.91191 4 4.24794 4 4.92 4L10.3265 4C10.5761 4 10.7009 4 10.8203 4.0245C10.9262 4.04624 11.0287 4.08219 11.125 4.13138C11.2335 4.18683 11.331 4.26479 11.5259 4.42073L12.4741 5.17927C12.669 5.33521 12.7665 5.41317 12.875 5.46862C12.9713 5.51781 13.0738 5.55376 13.1797 5.5755C13.2991 5.6 13.4239 5.6 13.6735 5.6L19.08 5.6C19.7521 5.6 20.0881 5.6 20.3448 5.73079C20.5706 5.84584 20.7542 6.02942 20.8692 6.25521C21 6.51191 21 6.84794 21 7.52L21 18.08C21 18.7521 21 19.0881 20.8692 19.3448C20.7542 19.5706 20.5706 19.7542 20.3448 19.8692C20.0881 20 19.7521 20 19.08 20L4.92 20Z" fill="url(#paint0_linear_5276_10751)"/>
<defs>
<linearGradient id="paint0_linear_5276_10751" x1="3" y1="12" x2="21" y2="12" gradientUnits="userSpaceOnUse">
<stop stop-color="#FFF1CE"/>
<stop offset="1" stop-color="#D5B87F"/>
</linearGradient>
</defs>
</svg>
