<svg width="24" height="24" viewBox="0 0 24 24" fill="none" xmlns="http://www.w3.org/2000/svg">
<path d="M14 14.2C14 13.5373 14.5373 13 15.2 13H18.8C19.4627 13 20 13.5373 20 14.2V19.8C20 20.4627 19.4627 21 18.8 21H15.2C14.5373 21 14 20.4627 14 19.8V14.2Z" fill="#BEA154"/>
<path d="M18.7998 3C19.4625 3 20 3.53745 20 4.2002V15C20 18.3137 17.3137 21 14 21H5.2002C4.53745 21 4 20.4625 4 19.7998V4.2002C4 3.53745 4.53745 3 5.2002 3H18.7998ZM11.0996 13.4004V15.4004H10.5V17H13.5V15.4004H12.9004V13.4004H11.0996ZM6 11.4004V12.5996H18V11.4004H6ZM7.5 7V9.2002H9.09961V8.7998H11.0996V10.5996H12.9004V8.7998H14.9004V9.2002H16.5V7H7.5Z" fill="url(#paint0_linear_5276_10729)"/>
<path d="M16.5 7L16.5 9.2H14.9V8.8H12.9V10.6H11.1V8.8H9.1V9.2H7.5V7H16.5Z" fill="#333949"/>
<path d="M12.9 15.4H13.5V17H10.5V15.4H11.1V13.4H12.9L12.9 15.4Z" fill="#333949"/>
<path d="M18 12.6H6V11.4H18V12.6Z" fill="#333949"/>
<defs>
<linearGradient id="paint0_linear_5276_10729" x1="12" y1="3" x2="12" y2="21" gradientUnits="userSpaceOnUse">
<stop stop-color="#FFF1CE"/>
<stop offset="1" stop-color="#D5B87F"/>
</linearGradient>
</defs>
</svg>
