<svg width="24" height="24" viewBox="0 0 24 24" fill="none" xmlns="http://www.w3.org/2000/svg">
<path d="M16.793 19.6211C15.4072 20.4931 13.7682 21 12.0117 21C7.04135 20.9998 3 16.9704 3 12C3 10.2392 3.50684 8.59726 4.38086 7.20996L16.793 19.6211ZM12 3C16.9706 3 21 7.05385 21 12.0244C21 13.7776 20.4931 15.4118 19.6221 16.7939L7.20996 4.38086C8.59727 3.50685 10.2392 3 12 3Z" fill="url(#paint0_linear_5276_10760)"/>
<path d="M8.35244 11.1807L7.63857 13.6299C7.63195 13.6696 7.64472 13.6902 7.67764 13.6904H9.16787C9.20787 13.6904 9.22124 13.6699 9.20791 13.6299L8.53896 11.3672L11.0028 13.8311L11.6483 15.8604C11.6549 15.8736 11.6581 15.8903 11.6581 15.9102C11.658 15.9701 11.621 16 11.5478 16H10.0185C9.94529 16 9.89787 15.9668 9.87783 15.9004L9.61806 15.0098C9.60479 14.9833 9.58813 14.9698 9.56826 14.9697H7.28799C7.26814 14.9698 7.25145 14.9833 7.23818 15.0098L6.97842 15.9004C6.95837 15.9669 6.91102 16 6.83779 16H5.30849C5.26854 16 5.23766 15.9897 5.21767 15.9697C5.19801 15.9432 5.19478 15.9066 5.20791 15.8604L7.08877 9.91699L8.35244 11.1807ZM16.0614 9C16.5813 9 17.0414 9.08965 17.4413 9.26953C17.8412 9.44949 18.151 9.70682 18.371 10.04C18.591 10.3734 18.7011 10.7571 18.7011 11.1904V13.8096C18.7011 14.2429 18.591 14.6266 18.371 14.96C18.2944 15.076 18.2057 15.1817 18.1073 15.2793L16.9179 14.0898C16.9952 13.9319 17.0374 13.7458 17.0419 13.5303V11.4697C17.0418 11.1499 16.9544 10.8966 16.7812 10.71C16.6145 10.5168 16.3942 10.4199 16.121 10.4199H15.1015C15.0683 10.42 15.0518 10.4366 15.0517 10.4697V12.2227L13.3915 10.5625V9.12012C13.3915 9.08681 13.4018 9.06003 13.4218 9.04004C13.4484 9.01349 13.4784 9.00003 13.5116 9H16.0614Z" fill="#333949"/>
<rect x="3.14853" y="4.27979" width="1.6" height="23.45" transform="rotate(-45 3.14853 4.27979)" fill="url(#paint1_linear_5276_10760)"/>
<defs>
<linearGradient id="paint0_linear_5276_10760" x1="12" y1="3" x2="12" y2="21" gradientUnits="userSpaceOnUse">
<stop stop-color="#FFF1CE"/>
<stop offset="1" stop-color="#D5B87F"/>
</linearGradient>
<linearGradient id="paint1_linear_5276_10760" x1="3.94853" y1="4.27979" x2="3.94853" y2="27.7298" gradientUnits="userSpaceOnUse">
<stop stop-color="#FFF1CE"/>
<stop offset="1" stop-color="#D5B87F"/>
</linearGradient>
</defs>
</svg>
