<svg width="24" height="24" viewBox="0 0 24 24" fill="none" xmlns="http://www.w3.org/2000/svg">
<path d="M17.1719 20H4.2002C3.53745 20 3 19.4625 3 18.7998V5.82812L17.1719 20ZM19.7998 4C20.4625 4 21 4.53745 21 5.2002V18.1709L6.8291 4H19.7998Z" fill="url(#paint0_linear_5276_10735)"/>
<path d="M6.75572 14.4382C8.25628 13.9581 9.85107 13.8833 11.3817 14.2107L13.5174 16.3464C12.9529 16.2844 12.3924 16.166 11.8456 15.991L11.7557 15.9626C10.2883 15.4931 8.7105 15.4931 7.24303 15.9626C6.82227 16.0972 6.37181 15.8648 6.23717 15.4441C6.1026 15.0233 6.33496 14.5729 6.75572 14.4382ZM16.7557 11.238C17.1764 11.1036 17.627 11.3359 17.7616 11.7566C17.8961 12.1774 17.6638 12.6278 17.243 12.7625C16.8045 12.9028 16.3578 13.0075 15.9071 13.0789L14.4159 11.5886C15.2049 11.5975 15.9952 11.4814 16.7557 11.238ZM9.5819 12.4109C8.79317 12.4021 8.00331 12.5192 7.24303 12.7625C6.82225 12.897 6.37181 12.6647 6.23717 12.2439C6.10273 11.8232 6.33502 11.3727 6.75572 11.238C7.19426 11.0977 7.64094 10.992 8.09166 10.9207L9.5819 12.4109ZM10.4813 7.65405C11.0457 7.71605 11.6055 7.8346 12.1522 8.00952L12.243 8.03882C13.7105 8.50839 15.2883 8.5084 16.7557 8.03882C17.1765 7.90425 17.6269 8.13565 17.7616 8.5564C17.8962 8.9772 17.6638 9.4276 17.243 9.56226C15.7424 10.0424 14.1477 10.1171 12.6171 9.78979L10.4813 7.65405Z" fill="#333949"/>
<rect x="3.14853" y="4.27979" width="1.6" height="23.45" transform="rotate(-45 3.14853 4.27979)" fill="url(#paint1_linear_5276_10735)"/>
<defs>
<linearGradient id="paint0_linear_5276_10735" x1="12" y1="4" x2="12" y2="20" gradientUnits="userSpaceOnUse">
<stop stop-color="#FFF1CE"/>
<stop offset="1" stop-color="#D5B87F"/>
</linearGradient>
<linearGradient id="paint1_linear_5276_10735" x1="3.94853" y1="4.27979" x2="3.94853" y2="27.7298" gradientUnits="userSpaceOnUse">
<stop stop-color="#FFF1CE"/>
<stop offset="1" stop-color="#D5B87F"/>
</linearGradient>
</defs>
</svg>
