<svg width="24" height="24" viewBox="0 0 24 24" fill="none" xmlns="http://www.w3.org/2000/svg">
<path d="M4 4.2C4 3.53726 4.53726 3 5.2 3H15.5029C15.8212 3 16.1264 3.12643 16.3515 3.35147L19.6485 6.64853C19.8736 6.87357 20 7.1788 20 7.49706V19.8C20 20.4627 19.4627 21 18.8 21H5.2C4.53726 21 4 20.4627 4 19.8V4.2Z" fill="#BEA154"/>
<path d="M4 4.2C4 3.53726 4.53726 3 5.2 3H15.5029C15.8212 3 16.1264 3.12643 16.3515 3.35147L19.6485 6.64853C19.8736 6.87357 20 7.1788 20 7.49706V15C20 18.3137 17.3137 21 14 21H5.2C4.53726 21 4 20.4627 4 19.8V4.2Z" fill="url(#paint0_linear_5276_10740)"/>
<mask id="mask0_5276_10740" style="mask-type:alpha" maskUnits="userSpaceOnUse" x="7" y="8" width="10" height="8">
<rect x="7" y="8" width="10" height="8" fill="#333949"/>
</mask>
<g mask="url(#mask0_5276_10740)">
<rect width="8" height="1.8" transform="matrix(-3.82475e-08 -1 -1 4.99559e-08 8.79999 16)" fill="#333949"/>
<rect width="8" height="1.8" transform="matrix(-3.82475e-08 -1 -1 4.99559e-08 17 16)" fill="#333949"/>
<rect width="6.75" height="1.8" transform="matrix(-0.766044 -0.642788 -0.642788 0.766044 17.1653 15.489)" fill="#333949"/>
<rect x="6.82501" y="15.489" width="6.75" height="1.8" transform="rotate(-40 6.82501 15.489)" fill="#333949"/>
</g>
<defs>
<linearGradient id="paint0_linear_5276_10740" x1="12" y1="3" x2="12" y2="21" gradientUnits="userSpaceOnUse">
<stop stop-color="#FFF1CE"/>
<stop offset="1" stop-color="#D5B87F"/>
</linearGradient>
</defs>
</svg>
