<svg width="134" height="32" viewBox="0 0 134 32" fill="none" xmlns="http://www.w3.org/2000/svg">
<path fill-rule="evenodd" clip-rule="evenodd" d="M4.28 12.1443C4.28 8.78949 4.28 7.11209 4.93288 5.83073C5.50718 4.70361 6.42355 3.78724 7.55067 3.21294C8.83203 2.56006 10.5094 2.56006 13.8642 2.56006L21.5758 2.56006C24.9306 2.56006 26.608 2.56006 27.8893 3.21294C29.0164 3.78724 29.9328 4.70361 30.5071 5.83073C31.16 7.11209 31.16 8.78949 31.16 12.1443V19.8558C31.16 23.2106 31.16 24.888 30.5071 26.1694C29.9328 27.2965 29.0164 28.2129 27.8893 28.7872C26.608 29.4401 24.9306 29.4401 21.5758 29.4401H13.8642C10.5094 29.4401 8.83203 29.4401 7.55067 28.7872C6.42355 28.2129 5.50718 27.2965 4.93288 26.1694C4.28 24.888 4.28 23.2106 4.28 19.8558L4.28 12.1443Z" fill="black"/>
<mask id="mask0_5276_10663" style="mask-type:luminance" maskUnits="userSpaceOnUse" x="4" y="2" width="28" height="28">
<path fill-rule="evenodd" clip-rule="evenodd" d="M4.28 12.1443C4.28 8.78949 4.28 7.11209 4.93288 5.83073C5.50718 4.70361 6.42355 3.78724 7.55067 3.21294C8.83203 2.56006 10.5094 2.56006 13.8642 2.56006L21.5758 2.56006C24.9306 2.56006 26.608 2.56006 27.8893 3.21294C29.0164 3.78724 29.9328 4.70361 30.5071 5.83073C31.16 7.11209 31.16 8.78949 31.16 12.1443V19.8558C31.16 23.2106 31.16 24.888 30.5071 26.1694C29.9328 27.2965 29.0164 28.2129 27.8893 28.7872C26.608 29.4401 24.9306 29.4401 21.5758 29.4401H13.8642C10.5094 29.4401 8.83203 29.4401 7.55067 28.7872C6.42355 28.2129 5.50718 27.2965 4.93288 26.1694C4.28 24.888 4.28 23.2106 4.28 19.8558L4.28 12.1443Z" fill="white"/>
</mask>
<g mask="url(#mask0_5276_10663)">
<path fill-rule="evenodd" clip-rule="evenodd" d="M4.28 29.4401H31.16V2.56006H4.28V29.4401Z" fill="#1E2939"/>
<path fill-rule="evenodd" clip-rule="evenodd" d="M16.3541 18.8623C15.6079 19.2029 14.7482 19.3734 13.7748 19.3734C12.8879 19.3734 12.0688 19.2274 11.3174 18.9353C10.5656 18.6433 9.91414 18.2296 9.3625 17.6944C8.811 17.159 8.37841 16.5183 8.06499 15.772C7.75113 15.0257 7.59442 14.2039 7.59442 13.3062C7.59442 12.3871 7.75378 11.5542 8.073 10.8079C8.39178 10.0617 8.83245 9.42651 9.39499 8.90179C9.95704 8.37739 10.6171 7.97462 11.3741 7.69324C12.131 7.41205 12.9476 7.27148 13.8235 7.27148C14.6347 7.27148 15.4321 7.41482 16.2163 7.70138C17.0002 7.988 17.6356 8.40698 18.1222 8.95857L16.2406 10.8404C15.981 10.4836 15.6404 10.2187 15.2185 10.0456C14.7968 9.87268 14.3641 9.78587 13.9209 9.78587C13.4342 9.78587 12.9881 9.87515 12.5827 10.0536C12.1771 10.232 11.8283 10.4782 11.5362 10.7917C11.2443 11.1055 11.0172 11.4758 10.855 11.9029C10.6928 12.3303 10.6117 12.798 10.6117 13.3062C10.6117 13.8253 10.6928 14.3013 10.855 14.7337C11.0172 15.1665 11.2414 15.5367 11.5283 15.8452C11.8146 16.1533 12.1581 16.3942 12.5583 16.5669C12.9583 16.74 13.3962 16.8264 13.8723 16.8264C14.4239 16.8264 14.9049 16.7184 15.316 16.502C15.7268 16.2857 16.0564 16.0047 16.3054 15.6584L18.2359 17.4753C17.7273 18.0594 17.1003 18.5218 16.3541 18.8623Z" fill="white"/>
<path fill-rule="evenodd" clip-rule="evenodd" d="M26.298 10.5645C26.0599 10.2618 25.7489 10.021 25.3652 9.84262C24.9812 9.66407 24.6109 9.5748 24.2541 9.5748C24.0699 9.5748 23.8836 9.59108 23.6944 9.62351C23.5052 9.65606 23.3348 9.71833 23.1834 9.81013C23.0318 9.90211 22.9049 10.021 22.8022 10.167C22.6992 10.313 22.648 10.4995 22.648 10.7267C22.648 10.9212 22.6885 11.0835 22.7698 11.2132C22.8508 11.3431 22.9699 11.4567 23.1266 11.5541C23.2833 11.6513 23.4698 11.7406 23.6862 11.8217C23.9024 11.9028 24.1458 11.9867 24.4163 12.0731C24.8056 12.2029 25.2111 12.3463 25.6329 12.5029C26.0546 12.6599 26.4384 12.8679 26.7846 13.1276C27.1305 13.3871 27.4173 13.709 27.6444 14.0927C27.8714 14.4769 27.9851 14.9554 27.9851 15.5284C27.9851 16.1883 27.8633 16.7589 27.62 17.2399C27.3767 17.7213 27.0494 18.1188 26.6386 18.4323C26.2276 18.7461 25.7571 18.9785 25.2274 19.1298C24.6973 19.2811 24.1511 19.357 23.5891 19.357C22.7669 19.357 21.9722 19.2136 21.2044 18.9271C20.4364 18.6407 19.7984 18.2323 19.2902 17.7022L21.107 15.8529C21.3882 16.1992 21.7584 16.4883 22.2182 16.7209C22.6777 16.9535 23.1347 17.0696 23.5891 17.0696C23.7942 17.0696 23.9944 17.048 24.189 17.0047C24.3838 16.9617 24.5542 16.8912 24.7 16.7939C24.846 16.6965 24.9622 16.5667 25.049 16.4045C25.1353 16.2423 25.1787 16.0476 25.1787 15.8205C25.1787 15.6042 25.1245 15.4205 25.0165 15.2689C24.9082 15.1176 24.7542 14.9796 24.5542 14.8552C24.3539 14.7311 24.1053 14.6175 23.8079 14.5146C23.5104 14.4119 23.1725 14.3012 22.7941 14.182C22.4263 14.063 22.0667 13.9225 21.7154 13.7603C21.3638 13.598 21.0501 13.3899 20.7745 13.1356C20.4988 12.8817 20.2769 12.5734 20.1095 12.2109C19.9416 11.8488 19.858 11.4079 19.858 10.8889C19.858 10.2508 19.9877 9.70464 20.2473 9.25045C20.5068 8.79621 20.8475 8.42309 21.2692 8.13105C21.691 7.83901 22.1667 7.62557 22.6969 7.49031C23.2265 7.35517 23.7617 7.2876 24.3028 7.2876C24.9515 7.2876 25.6139 7.40665 26.2898 7.64437C26.9656 7.88235 27.5576 8.23401 28.0661 8.69886L26.298 10.5645Z" fill="white"/>
<path fill-rule="evenodd" clip-rule="evenodd" d="M4.28 29.44H31.16V24.064H4.28V29.44Z" fill="#25C4A4"/>
</g>
<path fill-rule="evenodd" clip-rule="evenodd" d="M60.2281 22.3216C60.2281 23.551 59.5925 24.1838 58.3576 24.1838H56.7413L56.3236 22.3939C56.814 22.4481 57.268 22.4843 57.7038 22.4843C58.1215 22.4843 58.3395 22.2673 58.3395 21.8334V18.1813C57.6857 18.4344 57.0319 18.6694 56.3781 18.8864L55.8878 16.9699C56.7232 16.7891 57.5404 16.5541 58.3395 16.2648V12.5945H56.251V10.7684H58.3395V7.67676H60.2281V10.7684H61.7899V12.5945H60.2281V15.5054C60.8093 15.2342 61.3723 14.9449 61.9534 14.6195V16.536C61.8075 16.6086 61.6628 16.6812 61.5186 16.7535C61.0885 16.9693 60.6634 17.1826 60.2281 17.3857V22.3216ZM40.4515 24.184C41.6864 24.184 42.3039 23.5512 42.3039 22.2856V17.404C42.9395 17.1509 43.557 16.8978 44.1744 16.6446V14.7643C43.557 15.0536 42.9395 15.3248 42.3039 15.5779V12.5766H44.0836V10.7867H42.3039V7.67695H40.397V10.7867H38.1451V12.5766H40.397V16.2288C39.5798 16.4819 38.7444 16.6808 37.9091 16.8435L38.3631 18.6515C39.0532 18.4707 39.7251 18.2719 40.397 18.0549V21.8155C40.397 22.2495 40.1973 22.4664 39.7977 22.4664C39.3982 22.4664 38.9624 22.4303 38.5265 22.3579L38.9624 24.184H40.4515ZM53.981 23.949V8.88832H44.7737V10.7325H52.056V14.9451H45.264V16.7531H52.056V21.2189H44.4468V23.0631H52.056V23.949H53.981ZM70.5432 13.0647V11.3109H72.7406V9.55713H70.5432V7.69488H68.7635V9.55713H66.1484V7.69488H64.3687V9.55713H62.1713V11.3109H64.3687V13.0466H66.1484V11.3109H68.7635V13.0647H70.5432ZM64.5322 23.6777V24.3467H62.7162V13.6433H72.2504V24.3467H70.4344V23.6777H64.5322ZM66.6206 17.8559H64.5322V15.3789H66.6206V17.8559ZM68.364 17.8559H70.4342V15.3789H68.364V17.8559ZM66.6206 21.9419H64.5322V19.5372H66.6206V21.9419ZM68.364 21.9419H70.4342V19.5372H68.364V21.9419Z" fill="white"/>
<path fill-rule="evenodd" clip-rule="evenodd" d="M90.2837 23.9127V22.0685H83.5825V19.3927H88.6311V17.5666H83.5825V15.0354H87.6868V13.4082C88.4858 13.8963 89.3212 14.3483 90.1929 14.7642L91.1373 13.0827C88.1771 11.7448 85.562 9.91874 83.292 7.60449H81.9481C79.8415 9.81026 77.2082 11.6363 74.0483 13.1189L74.9745 14.8003C75.8825 14.3664 76.736 13.8963 77.5532 13.3901V15.0354H81.6575V17.5666H76.5907V19.3927H81.6575V22.0685H74.9745V23.9127H90.2837ZM87.378 13.2091H77.8438C79.6961 12.052 81.2943 10.7502 82.62 9.32188C84.0002 10.7864 85.5801 12.0881 87.378 13.2091ZM101.816 12.6126L100.254 13.7155C100.072 13.3539 99.8725 12.9742 99.6727 12.5945C97.784 12.8838 95.5322 13.1188 92.9352 13.2635L92.4267 11.6905C92.7536 11.582 93.0442 11.4374 93.2803 11.2204C94.3699 9.95482 95.1689 8.74346 95.7138 7.6225L97.5298 8.1649C96.8034 9.57514 95.9862 10.7142 95.06 11.6001C96.2586 11.5278 97.5298 11.4012 98.8737 11.2566C98.6563 10.9048 98.4185 10.5531 98.1756 10.1938C98.0939 10.0729 98.0116 9.95115 97.9293 9.82826L99.3822 8.90618C100.435 10.3345 101.235 11.5639 101.816 12.6126ZM106.81 15.7222C107.482 15.7222 107.99 15.5775 108.317 15.3063C108.644 15.017 108.88 14.095 109.025 12.5762L107.264 11.9977C107.228 12.974 107.137 13.5526 107.01 13.7514C106.882 13.9322 106.701 14.0226 106.447 14.0226H104.376C103.94 14.0226 103.741 13.7153 103.741 13.1367V11.4914C105.648 11.2021 107.336 10.8948 108.826 10.5693L108.208 8.90598C107.046 9.21334 105.557 9.50262 103.741 9.79191V7.73078H101.87V13.5164C101.87 14.9809 102.524 15.7222 103.85 15.7222H106.81ZM95.2778 21.0739V24.4187H93.4436V13.9142H100.671V22.3034C100.671 23.6232 100.054 24.2922 98.8191 24.2922H97.4208L96.9486 22.5384L98.2198 22.6288C98.6194 22.6288 98.8373 22.3757 98.8373 21.9056V21.0739H95.2778ZM98.8372 16.7889H95.2779V15.5414H98.8372V16.7889ZM108.299 23.6954C107.972 23.9666 107.482 24.1112 106.81 24.1112H103.832C102.524 24.1112 101.87 23.5327 101.87 22.3936V16.3188H103.741V18.2172C105.411 18.0364 106.901 17.7471 108.208 17.3493L108.826 19.0308C107.246 19.4466 105.557 19.7359 103.741 19.9167V21.9778C103.741 22.2852 103.94 22.4479 104.358 22.4479H106.447C106.701 22.4479 106.901 22.3575 107.01 22.1767C107.155 21.9778 107.246 21.3992 107.3 20.4229L109.025 20.9653C108.88 22.5021 108.626 23.4061 108.299 23.6954ZM98.8372 19.5191H95.2779V18.3439H98.8372V19.5191ZM126.913 21.9237V23.7317H110.987V21.9237H117.997V16.6082H112.512V14.8182H117.997V10.1355H111.622V8.3275H126.278V10.1355H119.885V14.8182H125.37V16.6082H119.885V21.9237H126.913Z" fill="white"/>
<path d="M127.993 6.79238H127.445V8.17463H127.027V6.79238H126.479V6.49463H127.993V6.79238Z" fill="white"/>
<path d="M128.206 6.49463H128.881L129.255 7.46535H129.273L129.661 6.49463H130.319V8.17463H129.907V6.82627H129.889L129.468 7.84541H129.047L128.629 6.82627H128.612V8.17463H128.206V6.49463Z" fill="white"/>
</svg>
