<svg width="20" height="12" viewBox="0 0 20 12" fill="none" xmlns="http://www.w3.org/2000/svg">
<path d="M14.3115 1.2793C14.8422 3.45725 16.5427 5.15782 18.7207 5.68848L20 6L18.7207 6.31152C16.5427 6.84218 14.8422 8.54274 14.3115 10.7207L14 12L13.6885 10.7207C13.1578 8.54275 11.4573 6.84218 9.2793 6.31152L8 6L9.2793 5.68848C11.4573 5.15782 13.1578 3.45726 13.6885 1.2793L14 0L14.3115 1.2793ZM4 2C4.48129 3.97594 6.02406 5.5187 8 6C6.02406 6.48129 4.48129 8.02406 4 10C3.51871 8.02406 1.97594 6.48129 0 6C1.97594 5.51871 3.51871 3.97594 4 2Z" fill="#D5B87F"/>
</svg>
