<svg width="20" height="12" viewBox="0 0 20 12" fill="none" xmlns="http://www.w3.org/2000/svg">
<path d="M5.68848 1.2793C5.15782 3.45725 3.45725 5.15782 1.2793 5.68848L0 6L1.2793 6.31152C3.45725 6.84218 5.15782 8.54274 5.68848 10.7207L6 12L6.31152 10.7207C6.84218 8.54275 8.54274 6.84218 10.7207 6.31152L12 6L10.7207 5.68848C8.54274 5.15782 6.84218 3.45726 6.31152 1.2793L6 0L5.68848 1.2793ZM16 2C15.5187 3.97594 13.9759 5.5187 12 6C13.9759 6.48129 15.5187 8.02406 16 10C16.4813 8.02406 18.0241 6.48129 20 6C18.0241 5.51871 16.4813 3.97594 16 2Z" fill="#D5B87F"/>
</svg>
