<svg width="375" height="44" viewBox="0 0 375 44" fill="none" xmlns="http://www.w3.org/2000/svg">
<g clip-path="url(#clip0_5276_10662)">
<path opacity="0.35" d="M338.667 17.833H355.333C356.53 17.833 357.5 18.8034 357.5 20V26C357.5 27.1965 356.53 28.166 355.333 28.166H338.667C337.47 28.166 336.5 27.1965 336.5 26V20L336.511 19.7783C336.622 18.6857 337.545 17.833 338.667 17.833Z" stroke="white"/>
<path opacity="0.4" d="M359 20.9995V24.9995C359.805 24.6607 360.328 23.8726 360.328 22.9995C360.328 22.1264 359.805 21.3383 359 20.9995Z" fill="white"/>
<path d="M338 20.6663C338 19.93 338.597 19.333 339.333 19.333H354.667C355.403 19.333 356 19.93 356 20.6663V25.333C356 26.0694 355.403 26.6663 354.667 26.6663H339.333C338.597 26.6663 338 26.0694 338 25.333V20.6663Z" fill="white"/>
<path d="M321.12 25.7311C322.396 24.6522 324.265 24.6522 325.54 25.7311C325.604 25.7892 325.641 25.8713 325.643 25.9577C325.645 26.0442 325.611 26.1276 325.549 26.1882L323.552 28.2038C323.494 28.263 323.414 28.2965 323.33 28.2966C323.247 28.2966 323.167 28.263 323.109 28.2038L321.111 26.1882C321.049 26.1276 321.015 26.0441 321.017 25.9577C321.019 25.8712 321.056 25.7891 321.12 25.7311ZM318.455 23.0417C321.204 20.4856 325.459 20.4857 328.207 23.0417C328.269 23.1015 328.305 23.1841 328.306 23.2702C328.307 23.3564 328.273 23.4395 328.212 23.5007L327.058 24.6677C326.939 24.7868 326.746 24.7894 326.624 24.6735C325.722 23.8563 324.548 23.4039 323.33 23.404C322.114 23.4045 320.94 23.8568 320.038 24.6735C319.916 24.7893 319.724 24.7867 319.605 24.6677L318.451 23.5007C318.39 23.4396 318.356 23.3563 318.357 23.2702C318.358 23.1841 318.393 23.1015 318.455 23.0417ZM315.79 20.36C320.006 16.3209 326.656 16.3206 330.87 20.36C330.931 20.42 330.966 20.5021 330.966 20.5876C330.967 20.6731 330.933 20.7554 330.872 20.8161L329.716 21.9831C329.597 22.1026 329.404 22.1038 329.284 21.986C327.678 20.4593 325.546 19.6082 323.33 19.6081C321.114 19.6081 318.982 20.4591 317.376 21.986C317.256 22.104 317.063 22.1028 316.944 21.9831L315.787 20.8161C315.727 20.7553 315.693 20.6732 315.694 20.5876C315.694 20.5021 315.729 20.42 315.79 20.36Z" fill="white"/>
<path d="M295.667 24.3335C296.219 24.3335 296.667 24.7812 296.667 25.3335V27.3335C296.666 27.8856 296.219 28.3335 295.667 28.3335H294.667C294.114 28.3335 293.667 27.8856 293.667 27.3335V25.3335C293.667 24.7812 294.114 24.3335 294.667 24.3335H295.667ZM300.334 22.3335C300.886 22.3337 301.334 22.7813 301.334 23.3335V27.3335C301.333 27.8855 300.886 28.3333 300.334 28.3335H299.334C298.781 28.3335 298.334 27.8856 298.334 27.3335V23.3335C298.334 22.7812 298.781 22.3335 299.334 22.3335H300.334ZM305 19.9995C305.552 19.9995 305.999 20.4474 306 20.9995V27.3335C305.999 27.8856 305.552 28.3335 305 28.3335H304C303.448 28.3333 303 27.8855 303 27.3335V20.9995C303 20.4475 303.448 19.9997 304 19.9995H305ZM309.667 17.6665C310.219 17.6665 310.667 18.1142 310.667 18.6665V27.3335C310.666 27.8856 310.219 28.3335 309.667 28.3335H308.667C308.114 28.3335 307.667 27.8856 307.667 27.3335V18.6665C307.667 18.1142 308.114 17.6665 308.667 17.6665H309.667Z" fill="white"/>
<path d="M37.3207 28.2563C40.0087 28.2563 41.6053 26.1543 41.6053 22.5947C41.6053 21.2544 41.349 20.1265 40.8583 19.2549C40.1478 17.8999 38.9247 17.1675 37.3793 17.1675C35.0795 17.1675 33.4535 18.7129 33.4535 20.8809C33.4535 22.917 34.9183 24.3965 36.9325 24.3965C38.1703 24.3965 39.1737 23.8179 39.6718 22.8145H39.6937C39.6937 22.8145 39.723 22.8145 39.7303 22.8145C39.745 22.8145 39.7963 22.8145 39.7963 22.8145C39.7963 25.2314 38.8807 26.6743 37.3353 26.6743C36.4271 26.6743 35.724 26.1763 35.4823 25.3779H33.6C33.9149 27.1138 35.3871 28.2563 37.3207 28.2563ZM37.3866 22.895C36.1708 22.895 35.3065 22.0308 35.3065 20.8223C35.3065 19.6431 36.2147 18.7422 37.3939 18.7422C38.5731 18.7422 39.4813 19.6577 39.4813 20.8516C39.4813 22.0308 38.5951 22.895 37.3866 22.895Z" fill="white"/>
<path d="M44.6965 28.1538C45.3923 28.1538 45.8683 27.6558 45.8683 26.9966C45.8683 26.3301 45.3923 25.8394 44.6965 25.8394C44.008 25.8394 43.5246 26.3301 43.5246 26.9966C43.5246 27.6558 44.008 28.1538 44.6965 28.1538ZM44.6965 22.6606C45.3923 22.6606 45.8683 22.1699 45.8683 21.5107C45.8683 20.8442 45.3923 20.3535 44.6965 20.3535C44.008 20.3535 43.5246 20.8442 43.5246 21.5107C43.5246 22.1699 44.008 22.6606 44.6965 22.6606Z" fill="white"/>
<path d="M52.7241 28H54.5332V26.0298H55.9614V24.4331H54.5332V17.4312H51.8672C49.9995 20.2437 48.5127 22.5947 47.5605 24.3452V26.0298H52.7241V28ZM49.311 24.3672C50.5415 22.1992 51.6401 20.4634 52.6509 18.9692H52.7534V24.4771H49.311V24.3672Z" fill="white"/>
<path d="M59.99 28H61.8797V17.4312H59.9973L57.2361 19.3647V21.1812L59.8655 19.3354H59.99V28Z" fill="white"/>
</g>
<defs>
<clipPath id="clip0_5276_10662">
<rect width="375" height="44" fill="white"/>
</clipPath>
</defs>
</svg>
