<svg width="228" height="36" viewBox="0 0 228 36" fill="none" xmlns="http://www.w3.org/2000/svg">
<circle cx="14" cy="18" r="14" fill="url(#paint0_linear_5276_10779)"/>
<path d="M12.6589 25C14.6225 22.3077 16.6541 19.9178 18.1638 18.2354C19.0551 17.2423 19.8922 16.339 20.6935 15.5264C21.4186 14.7909 22.1376 14.1165 22.8287 13.482C24.0067 12.4002 25.3839 11.2019 26.25 10.6887L25.1439 9.25C23.5403 10.2344 21.9967 11.2858 20.8049 12.0937C20.1103 12.5646 19.4658 13.0172 18.8584 13.4483C18.2567 13.8754 17.6355 14.3445 16.9805 14.8365C15.8433 15.6906 14.3823 16.8388 12.9675 18.0253L9.4174 14.7355L5.25 17.958L12.6589 25Z" fill="#1E2334"/>
<path d="M58.68 7.616V9.896H37.392V7.616H46.608L45.936 6.056L49.032 5.456C49.208 5.808 49.528 6.528 49.992 7.616H58.68ZM40.344 15.92V10.976H55.752V15.92H40.344ZM43.176 14H52.872V12.8H43.176V14ZM38.376 27.872V16.904H57.72V24.896C57.72 26 57.504 26.768 57.072 27.2C56.656 27.648 55.904 27.888 54.816 27.92C53.936 27.936 52.992 27.896 51.984 27.8L51.504 25.496H42.888V20.36H53.184V25.496H53.76C54.192 25.512 54.488 25.432 54.648 25.256C54.824 25.064 54.912 24.728 54.912 24.248V19.208H41.16V27.872H38.376ZM45.624 23.6H50.448V22.232H45.624V23.6ZM62.856 15.128C62.536 15.192 62.056 15.272 61.416 15.368L60.864 12.728C61.28 12.536 61.608 12.248 61.848 11.864C62.328 11.208 62.872 10.304 63.48 9.152C64.088 7.984 64.648 6.832 65.16 5.696L67.488 6.752C66.976 7.824 66.424 8.896 65.832 9.968C65.24 11.024 64.688 11.928 64.176 12.68L66.144 12.32C66.656 11.44 67.056 10.696 67.344 10.088L69.672 11.288C69.112 12.344 68.392 13.56 67.512 14.936C66.632 16.296 65.84 17.424 65.136 18.32L68.904 17.456L69 19.88C67.112 20.312 65.52 20.664 64.224 20.936L63.36 21.128L61.872 21.464L61.176 18.728C61.528 18.6 61.808 18.448 62.016 18.272C62.24 18.096 62.472 17.848 62.712 17.528C63.304 16.76 63.928 15.864 64.584 14.84L62.856 15.128ZM78.936 22.088C80.168 23.288 81.72 24.416 83.592 25.472L82.104 28.136C80.04 26.76 78.384 25.432 77.136 24.152C75.792 25.496 74.008 26.848 71.784 28.208L70.056 25.976C69.784 26.408 69.344 27.016 68.736 27.8L66.432 26.144C66.816 25.664 67.184 25.176 67.536 24.68C65.808 25.208 63.72 25.768 61.272 26.36L60.792 23.696C63.16 23.168 65.6 22.544 68.112 21.824L68.256 23.648C69.184 22.144 69.832 20.608 70.2 19.04C70.584 17.456 70.832 15.456 70.944 13.04L71.04 9.536H69.168V6.848H80.88V9.536L79.032 13.088H82.176V15.728C81.312 18.24 80.232 20.36 78.936 22.088ZM78.144 9.536H73.632L73.56 11.696C74.344 15.088 75.552 17.888 77.184 20.096C78.096 18.88 78.872 17.424 79.512 15.728H76.248V13.328L78.144 9.536ZM70.152 25.856C72.28 24.672 74.016 23.432 75.36 22.136C74.416 20.856 73.656 19.512 73.08 18.104C72.84 19.576 72.488 20.928 72.024 22.16C71.576 23.392 70.952 24.624 70.152 25.856ZM89.952 13.952C88.608 14.832 87.352 15.568 86.184 16.16L84.84 13.424C87.064 12.368 89.016 11.16 90.696 9.8C92.392 8.44 93.8 6.968 94.92 5.384H97.224C98.312 6.92 99.688 8.36 101.352 9.704C103.032 11.048 104.984 12.256 107.208 13.328L105.888 16.112C104.608 15.472 103.312 14.704 102 13.808V15.776H89.952V13.952ZM96.048 8.72C94.88 10.176 93.248 11.648 91.152 13.136H101.04C98.912 11.616 97.248 10.144 96.048 8.72ZM85.992 20.576V17.888H106.056V20.576H100.824C102.536 22.496 104.072 24.368 105.432 26.192L103.152 28.112C102.976 27.872 102.528 27.272 101.808 26.312C99.6 26.52 96.136 26.824 91.416 27.224C90.552 27.304 89.36 27.408 87.84 27.536L87.216 24.872C87.6 24.728 87.896 24.592 88.104 24.464C88.312 24.336 88.536 24.16 88.776 23.936C89.64 23.104 90.624 21.984 91.728 20.576H85.992ZM98.256 21.944L100.152 20.576H95.352C94.264 22.064 93.144 23.408 91.992 24.608C95.144 24.336 97.608 24.128 99.384 23.984L99.912 23.936L98.256 21.944ZM112.176 6.512H127.872V13.28H112.176V6.512ZM115.2 10.856H124.872V9.08H115.2V10.856ZM125.688 17.408H114.384V22.976H111.456V14.696H128.592V22.832H125.688V17.408ZM129.072 28.136C125.808 26.536 122.784 25.112 120 23.864C118.416 25.784 115.208 27.208 110.376 28.136L109.392 25.424C111.488 25.056 113.144 24.648 114.36 24.2C115.592 23.752 116.512 23.232 117.12 22.64C117.728 22.032 118.128 21.288 118.32 20.408C118.48 19.544 118.584 18.824 118.632 18.248H121.632C121.552 19.288 121.376 20.408 121.104 21.608C124.176 22.808 127.296 24.096 130.464 25.472L129.072 28.136ZM154.752 21.824C154.752 22.16 154.736 22.608 154.704 23.168C154.688 23.728 154.656 24.232 154.608 24.68C154.496 25.736 154.176 26.504 153.648 26.984C153.136 27.464 152.288 27.736 151.104 27.8C150.736 27.832 150.184 27.848 149.448 27.848C148.712 27.848 148.16 27.832 147.792 27.8C146.736 27.736 145.984 27.44 145.536 26.912C145.088 26.4 144.864 25.584 144.864 24.464V19.472H142.056C141.912 21.024 141.608 22.288 141.144 23.264C140.68 24.224 139.952 25.08 138.96 25.832C137.984 26.584 136.56 27.384 134.688 28.232L133.032 25.688C134.632 25.048 135.848 24.448 136.68 23.888C137.528 23.328 138.128 22.72 138.48 22.064C138.848 21.392 139.08 20.528 139.176 19.472H135.12V9.608H139.032C138.584 8.872 137.992 7.992 137.256 6.968L139.632 5.408L140.568 6.728L142.08 8.936L140.952 9.608H145.104C145.6 8.92 146.12 8.16 146.664 7.328C147.224 6.496 147.632 5.864 147.888 5.432L150.384 6.872C150.016 7.464 149.4 8.376 148.536 9.608H152.448V19.472H147.696V23.432C147.696 23.976 147.768 24.352 147.912 24.56C148.056 24.768 148.352 24.904 148.8 24.968C149.216 25 149.528 25.016 149.736 25.016C149.944 25.016 150.256 25 150.672 24.968C151.168 24.904 151.496 24.776 151.656 24.584C151.816 24.392 151.912 24.032 151.944 23.504C152.024 22.624 152.064 21.88 152.064 21.272L154.752 21.824ZM149.64 12.344H137.928V16.76H149.64V12.344ZM173.064 21.368C173.624 22.232 174.416 23 175.44 23.672C176.464 24.344 177.688 24.88 179.112 25.28L177.888 28.088C174.944 27.096 172.768 25.536 171.36 23.408C170.768 24.4 169.896 25.256 168.744 25.976C167.592 26.696 166.056 27.4 164.136 28.088L162.648 25.304C164.536 24.744 166 24.16 167.04 23.552C168.08 22.928 168.808 22.2 169.224 21.368H163.296V18.8H164.832V14.456L164.64 14.648L163.32 12.872H162.048V15.656L163.416 15.056L164.016 18.032C163.472 18.224 162.816 18.472 162.048 18.776V25.208C162.048 26.264 161.84 26.992 161.424 27.392C161.024 27.808 160.32 28.016 159.312 28.016C158.736 28.016 158.2 27.984 157.704 27.92L157.176 25.088C157.56 25.184 157.992 25.232 158.472 25.232C158.792 25.232 159 25.16 159.096 25.016C159.208 24.872 159.264 24.608 159.264 24.224V19.88L157.176 20.672L156.672 17.672C157.216 17.496 158.08 17.192 159.264 16.76V12.872H157.2V10.04H159.264V6.032H162.048V10.04H163.752V11.72C165.72 9.752 167.152 7.752 168.048 5.72L170.736 6.464C170.544 6.976 170.368 7.384 170.208 7.688H176.28V10.112L174.36 12.56H177.528V18.8H178.968V21.368H173.064ZM172.8 10.28H168.672C168.096 11.048 167.456 11.808 166.752 12.56H170.88L172.8 10.28ZM169.728 15.104H167.472V18.8H169.728V15.104ZM172.392 18.8H174.936V15.104H172.392V18.8ZM203.448 21.488C203.256 22.496 203.024 23.56 202.752 24.68C202.48 25.928 202.08 26.784 201.552 27.248C201.04 27.728 200.4 27.968 199.632 27.968C198.944 27.968 198.336 27.736 197.808 27.272C197.28 26.824 196.648 26.024 195.912 24.872C195.832 24.76 195.728 24.576 195.6 24.32C194.336 25.648 192.936 26.856 191.4 27.944L189.48 25.784C191.464 24.392 193.104 22.968 194.4 21.512C193.6 19.048 193 15.88 192.6 12.008H185.616V14.696H191.784C191.72 16.76 191.56 19.128 191.304 21.8C191.224 22.584 191.056 23.208 190.8 23.672C190.56 24.12 190.176 24.448 189.648 24.656C189.12 24.864 188.408 24.968 187.512 24.968C187.144 24.968 186.592 24.936 185.856 24.872L185.304 22.304C186.024 22.384 186.672 22.424 187.248 22.424C187.68 22.424 187.976 22.328 188.136 22.136C188.312 21.944 188.44 21.584 188.52 21.056C188.712 19.6 188.816 18.336 188.832 17.264H185.616C185.568 19.568 185.368 21.52 185.016 23.12C184.664 24.704 184.08 26.328 183.264 27.992L180.432 26.672C181.072 25.536 181.552 24.504 181.872 23.576C182.208 22.648 182.448 21.6 182.592 20.432C182.736 19.248 182.808 17.736 182.808 15.896V9.272H192.36C192.328 8.968 192.296 8.496 192.264 7.856L192.096 5.864H195L195.24 9.272H198.624C197.712 8.328 196.992 7.624 196.464 7.16L198.36 5.288C198.968 5.848 199.96 6.816 201.336 8.192L200.232 9.272H202.776V12.008H195.48C195.752 14.728 196.104 16.976 196.536 18.752C197.608 17.04 198.496 15.112 199.2 12.968L201.744 14.024C200.672 17.08 199.28 19.736 197.568 21.992C197.872 22.696 198.216 23.336 198.6 23.912C198.84 24.264 199.048 24.512 199.224 24.656C199.416 24.784 199.592 24.832 199.752 24.8C199.896 24.8 200.032 24.696 200.16 24.488C200.288 24.264 200.416 23.872 200.544 23.312C200.624 23.024 200.736 22.392 200.88 21.416L201 20.648L203.448 21.488ZM226.32 9.824C226.336 11.584 226.28 13.992 226.152 17.048C226.024 20.104 225.88 22.272 225.72 23.552C225.592 24.656 225.392 25.496 225.12 26.072C224.864 26.648 224.456 27.056 223.896 27.296C223.352 27.536 222.56 27.656 221.52 27.656C220.72 27.656 219.816 27.616 218.808 27.536L218.232 24.68C218.984 24.808 219.824 24.872 220.752 24.872C221.296 24.872 221.704 24.808 221.976 24.68C222.248 24.552 222.44 24.328 222.552 24.008C222.68 23.672 222.784 23.152 222.864 22.448C223.008 21.2 223.112 19.704 223.176 17.96C223.256 16.2 223.296 14.464 223.296 12.752H219.456C219.376 15.6 219.176 17.864 218.856 19.544C218.536 21.208 218 22.68 217.248 23.96C216.512 25.224 215.392 26.648 213.888 28.232L211.392 26.192C212.912 24.704 214 23.424 214.656 22.352C215.328 21.264 215.784 20.056 216.024 18.728C216.264 17.384 216.424 15.392 216.504 12.752H214.2V9.824H216.6L216.696 5.888H219.6L219.528 9.824H226.32ZM214.392 22.04C214.056 22.152 212.376 22.664 209.352 23.576L205.296 24.8L204.648 21.896C204.904 21.832 206.024 21.504 208.008 20.912V10.88H205.248V8.072H213.552V10.88H210.912V20.024L213.96 19.088L214.392 22.04Z" fill="url(#paint1_linear_5276_10779)"/>
<defs>
<linearGradient id="paint0_linear_5276_10779" x1="14" y1="4" x2="14" y2="32" gradientUnits="userSpaceOnUse">
<stop stop-color="#F6E2A7"/>
<stop offset="1" stop-color="#CCAD74"/>
</linearGradient>
<linearGradient id="paint1_linear_5276_10779" x1="132" y1="0" x2="132" y2="36" gradientUnits="userSpaceOnUse">
<stop stop-color="#F6E2A7"/>
<stop offset="1" stop-color="#CCAD74"/>
</linearGradient>
</defs>
</svg>
