<svg xmlns="http://www.w3.org/2000/svg" width="13" height="13" fill="none" viewBox="0 0 13 13"><path fill="#5a5a5a" fill-rule="evenodd" d="M4.08 1.26h7.65v7.66h-.66v1.27h.66c.7 0 1.27-.57 1.27-1.27V1.26C13 .56 12.43 0 11.73 0H4.08C3.38 0 2.8.57 2.8 1.26v.67h1.27zM9.1 3.9H1.26v7.83H9.1zM1.26 2.64C.56 2.64 0 3.2 0 3.9v7.83C0 12.43.57 13 1.26 13H9.1c.7 0 1.26-.57 1.26-1.27V3.9c0-.7-.56-1.26-1.26-1.26zm3.62 7.83a.35.35 0 0 1-.35-.35V8.47H2.88a.35.35 0 0 1-.35-.35v-.57c0-.19.16-.35.35-.35h1.65V5.55c0-.2.16-.35.35-.35h.57c.19 0 .35.16.35.35V7.2h1.65c.2 0 .35.16.35.35v.57c0 .19-.16.35-.35.35H5.8v1.65c0 .2-.16.35-.35.35z" clip-rule="evenodd" style="fill:#5a5a5a;fill:color(display-p3 .3529 .3529 .3529);fill-opacity:1"/></svg>