<svg xmlns="http://www.w3.org/2000/svg" width="13" height="14" fill="none" viewBox="0 0 13 14"><path fill="#fe501e" d="M4.45 0a.4.4 0 0 0-.42.42v.56c0 .23.18.42.42.42H8.5c.23 0 .42-.19.42-.42V.42A.4.4 0 0 0 8.5 0zm.02 9.76a.4.4 0 0 1 0-.6l1.11-1.11-1.11-1.11a.4.4 0 0 1 0-.6l.3-.3a.4.4 0 0 1 .6 0l1.1 1.12L7.6 6.05a.4.4 0 0 1 .6 0l.29.3c.16.16.16.42 0 .59L7.37 8.05l1.11 1.11c.16.17.16.43 0 .6l-.3.3a.4.4 0 0 1-.6 0l-1.1-1.12-1.12 1.11a.4.4 0 0 1-.6 0z" style="fill:#fe501e;fill:color(display-p3 .9961 .3137 .1176);fill-opacity:1"/><path fill="#fe501e" fill-rule="evenodd" d="M0 2.52c0-.23.19-.42.42-.42h12.11c.23 0 .42.19.42.42v.42c0 .23-.19.42-.42.42h-.8v9.38c0 .7-.57 1.26-1.26 1.26H2.49c-.7 0-1.26-.56-1.26-1.26V3.36H.42A.4.4 0 0 1 0 2.94zm2.49.84h7.98v9.38H2.49z" clip-rule="evenodd" style="fill:#fe501e;fill:color(display-p3 .9961 .3137 .1176);fill-opacity:1"/></svg>