<svg xmlns="http://www.w3.org/2000/svg" width="14" height="12" fill="none" viewBox="0 0 14 12"><path fill="#5a5a5a" d="M7.37.4a.4.4 0 0 0-.4-.4h-.41a.4.4 0 0 0-.4.4v7.3l-2.5-2.5a.4.4 0 0 0-.57 0l-.28.3a.4.4 0 0 0 0 .57l3.52 3.52a.6.6 0 0 0 .86 0l3.52-3.52a.4.4 0 0 0 0-.58l-.28-.28a.4.4 0 0 0-.58 0L7.37 7.69z" style="fill:#5a5a5a;fill:color(display-p3 .3529 .3529 .3529);fill-opacity:1"/><path fill="#5a5a5a" d="M0 9.47v1.31C0 11.46.54 12 1.22 12H12.3c.68 0 1.22-.54 1.22-1.22V9.47H12.3v1.31H1.22V9.47z" style="fill:#5a5a5a;fill:color(display-p3 .3529 .3529 .3529);fill-opacity:1"/></svg>