<svg xmlns="http://www.w3.org/2000/svg" width="13" height="12" fill="none" viewBox="0 0 13 12"><path fill="#5a5a5a" fill-rule="evenodd" d="M0 8.9q0-.15.1-.25L9.17.1a.4.4 0 0 1 .56 0l2.8 2.7a.4.4 0 0 1 0 .58L3.49 11.9a.3.3 0 0 1-.23.09H.41a.4.4 0 0 1-.41-.4zm11.07-5.81-8.17 7.7H1.22V9.26l8.22-7.75z" clip-rule="evenodd" style="fill:#5a5a5a;fill:color(display-p3 .3529 .3529 .3529);fill-opacity:1"/><path fill="#5a5a5a" d="M7.83 10.65a.4.4 0 0 0-.4.4v.41c0 .22.18.4.4.4h4.6a.4.4 0 0 0 .4-.4v-.4a.4.4 0 0 0-.4-.41z" style="fill:#5a5a5a;fill:color(display-p3 .3529 .3529 .3529);fill-opacity:1"/></svg>