<svg xmlns="http://www.w3.org/2000/svg" width="13" height="13" fill="none" viewBox="0 0 13 13"><path fill="#5a5a5a" fill-rule="evenodd" d="M5.79.18a.6.6 0 0 1 .85 0L9.4 2.94c.2.2.2.51 0 .7l-.14.15a.5.5 0 0 1-.71 0L6.82 2.06v7.28a.5.5 0 0 1-.5.5h-.2a.5.5 0 0 1-.51-.5V2.06L3.88 3.8a.5.5 0 0 1-.7 0l-.15-.14a.5.5 0 0 1 0-.71zM2.52 4.6H1.2C.54 4.6 0 5.14 0 5.81v5.98C0 12.46.54 13 1.2 13h10.02c.67 0 1.2-.54 1.2-1.21V5.81c0-.67-.53-1.2-1.2-1.2H9.9v1.2h1.3v5.98h-10V5.81h1.3z" clip-rule="evenodd" style="fill:#5a5a5a;fill:color(display-p3 .3529 .3529 .3529);fill-opacity:1"/></svg>