<svg xmlns="http://www.w3.org/2000/svg" width="13" height="13" fill="none" viewBox="0 0 13 13"><path fill="#5a5a5a" fill-rule="evenodd" d="M8.58 6.25a1.82 1.82 0 1 1 0-3.65 1.82 1.82 0 0 1 0 3.65m0-1.08a.74.74 0 1 1 0-1.49.74.74 0 0 1 0 1.49" clip-rule="evenodd" style="fill:#5a5a5a;fill:color(display-p3 .3529 .3529 .3529);fill-opacity:1"/><path fill="#5a5a5a" fill-rule="evenodd" d="M7.43 0h4.35C12.46 0 13 .54 13 1.22v4.35q0 .5-.36.86l-6.2 6.21c-.48.48-1.25.48-1.73 0L.36 8.3a1.2 1.2 0 0 1 0-1.72L6.56.36Q6.94 0 7.44 0M1.3 7.43l6.14-6.15h4.27v4.27l-6.15 6.14z" clip-rule="evenodd" style="fill:#5a5a5a;fill:color(display-p3 .3529 .3529 .3529);fill-opacity:1"/></svg>