<svg width="15" height="12" viewBox="0 0 15 12" fill="none" xmlns="http://www.w3.org/2000/svg">
<path d="M7.82661 1.61422L7.77701 1.79005C7.72787 1.95439 7.65843 2.16194 7.56263 2.40297L7.50194 2.55154C7.21024 3.24674 6.7707 4.09636 6.12701 5.23655L4.58406 7.91799L4.26453 8.48816C4.20068 8.6041 4.14115 8.71372 4.08504 8.81871L3.8555 9.25764L3.70916 9.55063C3.28248 10.4302 3.20631 10.8673 3.52689 11.306C3.92083 11.8452 4.43484 11.7374 4.91844 11.3974C5.11593 11.2585 5.33917 11.0561 5.60913 10.7784L5.72774 10.6548C5.95584 10.4142 6.20973 10.1309 6.5428 9.74807L7.7242 8.37858C7.90527 8.17014 8.06899 7.98369 8.22517 7.80839L8.54842 7.44991C9.12161 6.82261 9.58988 6.35852 9.98616 6.03467C10.1958 5.86338 10.3759 5.74001 10.5181 5.66716L10.5859 5.63495C10.6205 5.61997 10.6359 5.61289 10.634 5.6056L10.5926 5.59461L10.5939 5.64056L10.5867 5.72616C10.5562 5.98492 10.4276 6.57739 10.1076 7.46315L9.53144 8.96642L9.41813 9.27204L9.32474 9.53928C9.29663 9.62301 9.27138 9.70193 9.24852 9.7776C8.99717 10.6097 8.97089 11.1083 9.50947 11.4768C10.5162 12.1657 11.916 10.8886 14.8331 7.36765C15.0888 7.05897 15.0459 6.60143 14.7372 6.34569C14.4285 6.08996 13.971 6.13287 13.7153 6.44155L13.3226 6.9116L12.9486 7.35147C12.2192 8.20097 11.6019 8.86901 11.0996 9.35351L10.8479 9.58971L11.3669 8.24263L11.4084 8.13181C12.2221 5.94914 12.3664 4.79506 11.1883 4.25765C10.2095 3.81113 9.21632 4.55353 7.45945 6.48884L7.01942 6.98009L6.36863 7.72712L7.24744 6.20355L7.61248 5.55652L7.96703 4.91238C9.26641 2.51253 9.63802 1.31614 9.05377 0.516554C8.31272 -0.497608 7.17433 0.0476788 5.55104 1.57501L5.26044 1.8542L4.95536 2.15854C3.70604 3.42625 2.1085 5.29823 0.155451 7.78017C-0.0924345 8.09518 -0.0380158 8.5515 0.276998 8.79939C0.592012 9.04727 1.04833 8.99286 1.29622 8.67784L1.76828 8.08116L2.22551 7.50975C4.02472 5.27473 5.46723 3.64699 6.54575 2.63223C7.07771 2.13171 7.51087 1.79104 7.82661 1.61422Z" fill="#5A5A5A" style="fill:#5A5A5A;fill:color(display-p3 0.3529 0.3529 0.3529);fill-opacity:1;"/>
</svg>
