<svg width="14" height="11" viewBox="0 0 14 11" fill="none" xmlns="http://www.w3.org/2000/svg">
<path d="M9.5896 10.0297L9.6051 10.0443C9.60965 10.0456 9.61241 10.0442 9.61421 10.0395L9.61812 10.0055C9.62299 9.91311 9.64818 9.78404 9.69381 9.61985L9.72365 9.51714C9.773 9.35376 9.83789 9.16549 9.92439 8.93236L10.4895 7.46148C11.2046 5.54312 11.3324 4.52108 10.4717 4.12845C9.7274 3.78891 8.74668 4.56164 7.08889 6.40355L6.68963 6.8528L5.15284 8.62909L4.90027 8.9151C4.78234 9.04722 4.67598 9.16409 4.57671 9.27048L4.49553 9.35682C4.30718 9.55554 4.14801 9.71121 4.01781 9.82372L4.11903 9.6122L4.29855 9.26494C4.49395 8.89665 4.77689 8.38604 5.16991 7.69282L6.4204 5.50841C8.12098 2.52124 8.74306 1.03862 8.22153 0.324885C7.71189 -0.372594 6.76579 0.0805848 5.34303 1.41924L5.06055 1.69066C3.80526 2.92063 2.14363 4.85065 0.0713925 7.48406C-0.0424516 7.62873 -0.0174592 7.8383 0.127215 7.95215C0.271888 8.06599 0.481458 8.041 0.595302 7.89633L1.06218 7.3062L1.51448 6.74098C3.29446 4.52994 4.72404 2.917 5.79986 1.90478C6.41192 1.3289 6.90365 0.953593 7.26306 0.781438C7.53204 0.652599 7.63914 0.657835 7.68326 0.718203C7.93757 1.06625 7.33312 2.53411 5.96384 4.96187L4.66675 7.21341C4.34076 7.78067 4.10347 8.20562 3.90899 8.57494L3.75767 8.8671L3.62065 9.14458C3.28657 9.84414 3.20413 10.2289 3.39754 10.4936C3.61263 10.788 3.91659 10.7243 4.24032 10.4967C4.43666 10.3586 4.67641 10.1351 4.97939 9.81543L5.33603 9.42784L5.77111 8.93451L6.93306 7.58756L7.42923 7.02284L7.7131 6.70823L7.98431 6.41572C9.13165 5.19636 9.91257 4.60614 10.195 4.73498C10.533 4.88916 10.4301 5.7122 9.86478 7.22861L9.33111 8.62017L9.17293 9.04503C8.75334 10.1996 8.82141 10.318 9.19273 10.5721C9.89247 11.0509 11.2972 9.76923 13.9234 6.59946C14.0408 6.4577 14.0211 6.24757 13.8793 6.13012C13.7376 6.01267 13.5274 6.03238 13.41 6.17414L13.0955 6.55083L12.7837 6.91809C10.9996 9.00232 9.82086 10.0677 9.5896 10.0297Z" fill="#5A5A5A" style="fill:#5A5A5A;fill:color(display-p3 0.3529 0.3529 0.3529);fill-opacity:1;"/>
</svg>
