<svg xmlns="http://www.w3.org/2000/svg" width="134" height="32" fill="none" viewBox="0 0 134 32"><path fill="#000" fill-rule="evenodd" d="M4.28 12.14c0-3.35 0-5.03.65-6.3A6 6 0 0 1 7.55 3.2c1.28-.65 2.96-.65 6.31-.65h7.72c3.35 0 5.03 0 6.3.65a6 6 0 0 1 2.63 2.62c.65 1.28.65 2.96.65 6.31v7.72c0 3.35 0 5.03-.65 6.3a6 6 0 0 1-2.62 2.63c-1.28.65-2.96.65-6.31.65h-7.72c-3.35 0-5.03 0-6.3-.65a6 6 0 0 1-2.63-2.62c-.65-1.28-.65-2.96-.65-6.31z" clip-rule="evenodd"/><mask id="a" width="28" height="28" x="4" y="2" maskUnits="userSpaceOnUse" style="mask-type:luminance"><path fill="#fff" fill-rule="evenodd" d="M4.28 12.14c0-3.35 0-5.03.65-6.3A6 6 0 0 1 7.55 3.2c1.28-.65 2.96-.65 6.31-.65h7.72c3.35 0 5.03 0 6.3.65a6 6 0 0 1 2.63 2.62c.65 1.28.65 2.96.65 6.31v7.72c0 3.35 0 5.03-.65 6.3a6 6 0 0 1-2.62 2.63c-1.28.65-2.96.65-6.31.65h-7.72c-3.35 0-5.03 0-6.3-.65a6 6 0 0 1-2.63-2.62c-.65-1.28-.65-2.96-.65-6.31z" clip-rule="evenodd"/></mask><g fill-rule="evenodd" clip-rule="evenodd" mask="url(#a)"><path fill="#1e2939" d="M4.28 29.44h26.88V2.56H4.28z"/><path fill="#fff" d="M16.35 18.86q-1.11.51-2.58.51-1.32 0-2.45-.43a5.8 5.8 0 0 1-3.73-5.63q0-1.38.48-2.5a5.6 5.6 0 0 1 3.3-3.12 7 7 0 0 1 4.85.01q1.17.43 1.9 1.26l-1.88 1.88q-.39-.54-1.02-.8a3.4 3.4 0 0 0-2.64.01 3 3 0 0 0-1.72 1.85q-.25.65-.25 1.4 0 .79.25 1.43.24.65.67 1.12.42.45 1.03.72.6.26 1.31.26.82 0 1.45-.33.6-.32.99-.84l1.93 1.82a5.5 5.5 0 0 1-1.89 1.38m9.95-8.3a2.5 2.5 0 0 0-.93-.72 2.6 2.6 0 0 0-1.68-.22q-.28.06-.5.19-.24.14-.39.36a1 1 0 0 0-.15.56q0 .3.12.48.12.2.36.34.23.16.56.27.32.13.73.25l1.21.43q.63.24 1.15.63.53.39.86.96.35.59.35 1.44 0 .99-.37 1.71-.36.72-.98 1.2a4 4 0 0 1-1.41.69q-.8.23-1.64.23-1.23 0-2.39-.43-1.14-.43-1.91-1.23l1.82-1.85q.42.52 1.1.87a3 3 0 0 0 1.98.28q.3-.05.51-.2t.35-.4q.13-.24.13-.58t-.16-.55q-.17-.23-.47-.41-.3-.19-.74-.35l-1.02-.33a10 10 0 0 1-1.07-.42 4 4 0 0 1-.95-.62 3 3 0 0 1-.91-2.25 3.3 3.3 0 0 1 1.4-2.76q.64-.44 1.44-.64t1.6-.2q.97 0 1.99.35 1.02.37 1.78 1.06z"/><path fill="#25c4a4" d="M4.28 29.44h26.88v-5.38H4.28z"/></g><path fill="#fff" fill-rule="evenodd" d="M60.23 22.32q-.01 1.85-1.87 1.86h-1.62l-.42-1.79q.74.1 1.38.1t.64-.66v-3.65q-.97.38-1.96.7l-.5-1.91a19 19 0 0 0 2.46-.7v-3.68h-2.09v-1.82h2.09v-3.1h1.89v3.1h1.56v1.82h-1.56v2.92q.86-.42 1.72-.89v1.92l-.43.21-1.3.64zm-19.78 1.86q1.86 0 1.85-1.9V17.4q.96-.37 1.87-.76v-1.88q-.91.44-1.87.82v-3h1.78v-1.8H42.3v-3.1h-1.9v3.1h-2.25v1.8h2.25v3.65q-1.23.37-2.5.61l.46 1.81q1.04-.27 2.04-.6v3.77q0 .65-.6.65-.61 0-1.27-.11l.43 1.82zm13.53-.23V8.89h-9.2v1.84h7.28v4.22h-6.8v1.8h6.8v4.47h-7.61v1.84h7.6v.89zm16.56-10.89v-1.75h2.2V9.56h-2.2V7.69h-1.78v1.87h-2.61V7.69h-1.78v1.87h-2.2v1.75h2.2v1.74h1.78V11.3h2.61v1.75zm-6 10.62v.67h-1.82v-10.7h9.53v10.7h-1.82v-.67zm2.08-5.82h-2.09v-2.48h2.1zm1.74 0h2.07v-2.48h-2.07zm-1.74 4.08h-2.09v-2.4h2.1zm1.74 0h2.07v-2.4h-2.07zm21.92 1.97v-1.84h-6.7v-2.68h5.05v-1.82h-5.05v-2.53h4.1V13.4q1.2.73 2.51 1.35l.95-1.68a26 26 0 0 1-7.85-5.48h-1.34a26 26 0 0 1-7.9 5.52l.92 1.68q1.36-.64 2.58-1.41v1.65h4.1v2.53H76.6v1.82h5.07v2.68h-6.69v1.84zm-2.9-10.7h-9.54a23 23 0 0 0 4.78-3.89 24 24 0 0 0 4.76 3.89m14.44-.6-1.57 1.1-.58-1.12q-2.84.46-6.73.67l-.51-1.57q.48-.14.85-.47a17 17 0 0 0 2.43-3.6l1.82.54a13 13 0 0 1-2.47 3.44q1.8-.12 3.81-.34-.32-.53-.7-1.07l-.24-.36 1.45-.92a35 35 0 0 1 2.44 3.7m4.99 3.11q1.01 0 1.5-.41.5-.45.72-2.73l-1.77-.58a5 5 0 0 1-.25 1.75q-.18.27-.56.27h-2.07q-.65 0-.64-.88v-1.65q2.85-.44 5.09-.92l-.62-1.66q-1.74.45-4.47.88V7.73h-1.87v5.79q0 2.2 1.98 2.2zm-11.53 5.35v3.35h-1.84v-10.5h7.23v8.38q0 1.99-1.85 2h-1.4l-.47-1.76 1.27.09q.61 0 .62-.72v-.84zm3.56-4.28h-3.56v-1.25h3.56zm9.46 6.9q-.49.42-1.49.42h-2.98q-1.95 0-1.96-1.72v-6.07h1.87v1.9q2.5-.27 4.47-.87l.62 1.68q-2.36.62-5.09.89v2.06q0 .46.62.47h2.09q.39 0 .56-.27.21-.3.29-1.76l1.73.55q-.23 2.3-.73 2.73m-9.46-4.17h-3.56v-1.18h3.56zm28.07 2.4v1.81H111v-1.8h7V16.6h-5.48v-1.8H118v-4.67h-6.38v-1.8h14.66v1.8h-6.4v4.69h5.49v1.79h-5.48v5.31z" clip-rule="evenodd"/><path fill="#fff" d="M128 6.8h-.56v1.37h-.41V6.8h-.55v-.3h1.51zm.2-.3h.68l.38.97h.01l.4-.98h.65v1.68h-.41V6.83h-.02l-.42 1.02h-.42l-.42-1.02h-.02v1.34h-.4z"/></svg>