<svg xmlns="http://www.w3.org/2000/svg" width="40" height="40" fill="none" viewBox="0 0 40 40"><path fill="#fff" fill-rule="evenodd" d="M0 0h40v40H0z" clip-rule="evenodd" opacity=".01"/><path fill="#139d90" fill-rule="evenodd" d="M8 13.5c0-1.1.9-2 2-2h4a2 2 0 0 1 1.6.79l.8 1.05a2 2 0 0 0 1.6.79h16.5c.83 0 1.5.67 1.5 1.5V30.5a2 2 0 0 1-2 2H10a2 2 0 0 1-2-2z" clip-rule="evenodd"/><path fill="#c3d9e1" fill-rule="evenodd" d="M8.5 11c0-.83.67-1.5 1.5-1.5h23c.83 0 1.5.67 1.5 1.5v18c0 .83-.67 1.5-1.5 1.5H10A1.5 1.5 0 0 1 8.5 29z" clip-rule="evenodd"/><path fill="#ebf1f6" fill-rule="evenodd" d="M6 9c0-.83.67-1.5 1.5-1.5h24c.83 0 1.5.67 1.5 1.5v18c0 .83-.67 1.5-1.5 1.5h-24A1.5 1.5 0 0 1 6 27z" clip-rule="evenodd"/><rect width="5" height=".7" x="9" y="11" fill="#cbdbe1" opacity=".5" rx=".25"/><rect width="2" height=".7" x="15" y="11" fill="#cbdbe1" opacity=".5" rx=".25"/><rect width="12" height=".7" x="18" y="11" fill="#cbdbe1" opacity=".5" rx=".25"/><rect width="13" height=".7" x="9" y="13.6" fill="#cbdbe1" opacity=".5" rx=".25"/><rect width="6" height=".7" x="24" y="13.6" fill="#cbdbe1" opacity=".5" rx=".25"/><path fill="#19bcaa" fill-rule="evenodd" d="M4 15c0-.83.67-1.5 1.5-1.5h9.52c.3 0 .6.14.78.38l1.4 1.74a1 1 0 0 0 .78.38H30.5c.83 0 1.5.67 1.5 1.5v15H7a3 3 0 0 1-3-3zm30 16.5a2 2 0 0 0 2-2v1a2 2 0 0 1-2 2h-2v-3c0 1.1.9 2 2 2" clip-rule="evenodd"/></svg>