<svg width="12" height="12" viewBox="0 0 12 12" fill="none" xmlns="http://www.w3.org/2000/svg">
<g clip-path="url(#clip0_0_130)">
<path fill-rule="evenodd" clip-rule="evenodd" d="M9.35 10.1V2.87279L8.37721 1.9L2.65 1.9L2.65 10.1H9.35ZM2.65 1C2.15294 1 1.75 1.40294 1.75 1.9V10.1C1.75 10.5971 2.15294 11 2.65 11H9.35C9.84706 11 10.25 10.5971 10.25 10.1V2.87279C10.25 2.6341 10.1552 2.40518 9.9864 2.2364L9.0136 1.2636C8.84482 1.09482 8.6159 1 8.37721 1H2.65Z" fill="#9C9C9C" style="fill:#9C9C9C;fill:color(display-p3 0.6118 0.6118 0.6118);fill-opacity:1;"/>
<rect x="4" y="4.25" width="4" height="0.9" rx="0.3" fill="#9C9C9C" style="fill:#9C9C9C;fill:color(display-p3 0.6118 0.6118 0.6118);fill-opacity:1;"/>
<rect x="4" y="6.84961" width="2.5" height="0.9" rx="0.3" fill="#9C9C9C" style="fill:#9C9C9C;fill:color(display-p3 0.6118 0.6118 0.6118);fill-opacity:1;"/>
</g>
<defs>
<clipPath id="clip0_0_130">
<rect width="12" height="12" fill="white" style="fill:white;fill-opacity:1;"/>
</clipPath>
</defs>
</svg>
