<svg width="96" height="96" viewBox="0 0 96 96" fill="none" xmlns="http://www.w3.org/2000/svg">
<path d="M17.28 79.998C15.4318 79.998 14.5077 79.998 13.8018 79.6384C13.1809 79.322 12.6761 78.8172 12.3597 78.1962C12 77.4903 12 76.5662 12 74.718L12 21.2781C12 19.4299 12 18.5058 12.3597 17.7999C12.6761 17.179 13.1809 16.6741 13.8018 16.3577C14.5077 15.9981 15.4318 15.9981 17.28 15.9981L42.1479 15.9981C42.8343 15.9981 43.1776 15.9981 43.5059 16.0654C43.7971 16.1252 44.079 16.2241 44.3438 16.3594C44.6422 16.5118 44.9102 16.7262 45.4463 17.1551L50.5537 21.241C51.0898 21.6699 51.3578 21.8843 51.6562 22.0368C51.921 22.172 52.2029 22.2709 52.4941 22.3307C52.8224 22.3981 53.1657 22.3981 53.8521 22.3981L78.72 22.3981C80.5682 22.3981 81.4923 22.3981 82.1982 22.7577C82.8191 23.0741 83.3239 23.5789 83.6403 24.1999C84 24.9058 84 25.8299 84 27.6781L84 74.718C84 76.5662 84 77.4903 83.6403 78.1962C83.3239 78.8171 82.8191 79.322 82.1982 79.6384C81.4923 79.998 80.5682 79.998 78.72 79.998L17.28 79.998Z" fill="#00B796" style="fill:#00B796;fill:color(display-p3 0.0000 0.7176 0.5882);fill-opacity:1;"/>
<path opacity="0.6" d="M20.001 31.522C20.001 30.2898 20.001 29.6738 20.2408 29.2032C20.4517 28.7892 20.7882 28.4527 21.2022 28.2417C21.6728 28.002 22.2889 28.002 23.521 28.002H72.481C73.7131 28.002 74.3292 28.002 74.7998 28.2417C75.2137 28.4527 75.5503 28.7892 75.7612 29.2032C76.001 29.6738 76.001 30.2898 76.001 31.522V34.402H20.001L20.001 31.522Z" fill="white" style="fill:white;fill-opacity:1;"/>
</svg>
