<svg width="16" height="16" viewBox="0 0 16 16" fill="none" xmlns="http://www.w3.org/2000/svg">
<path d="M7.33399 11.1595L7.33399 2.90365C7.33399 2.71955 7.48322 2.57031 7.66732 2.57031H8.33399C8.51808 2.57031 8.66732 2.71955 8.66732 2.90365L8.66732 11.1585L10.2437 9.58203C10.3999 9.42582 10.6532 9.42582 10.8094 9.58203L11.1865 9.95915C11.3427 10.1154 11.3427 10.3686 11.1865 10.5248L8.47163 13.2398C8.21128 13.5002 7.78917 13.5002 7.52882 13.2398L4.81346 10.5248C4.65724 10.3686 4.65723 10.1153 4.81345 9.95913L5.19057 9.582C5.34677 9.4258 5.60002 9.42579 5.75624 9.58198L7.33399 11.1595Z" fill="#5A5A5A" style="fill:#5A5A5A;fill:color(display-p3 0.3529 0.3529 0.3529);fill-opacity:1;"/>
</svg>
